<?xml version="1.0" encoding="UTF-8"?>
<svg xmlns="http://www.w3.org/2000/svg" clip-rule="evenodd" fill-rule="evenodd" stroke-linecap="round" stroke-linejoin="round" viewBox="0 0 1786 1602">
  <path d="m1114 1466.7c0-2.6 1-4.3 4.8-8 4.8-4.7 4.8-4.7 12-4.7s7.2 0 7.2 3.3c0 3.5-.3 3.8-10.8 9.4-3.6 1.9-7.7 3.3-9.7 3.3-3.3 0-3.5-.2-3.5-3.3z" fill="#020315" fill-rule="nonzero" />
  <path d="m1092.4 1345.4c-.7-3.7 0-15.1 1.2-19.1.5-1.7.2-2.3-1-2.3-4 0-.2-14 9.6-35.5 12.9-28.3 32.7-56.1 59.5-83.7 26.9-27.7 67.7-55.4 101.4-68.8 16.5-6.6 26.1-10 28.4-10 1.2 0 2.5-.4 3.1-.9 1.1-1.1 16.7-5.4 30.4-8.3 9.4-1.9 14-2.2 42.4-2.5 18-.2 32.4.1 33 .6s3.2 1.2 5.9 1.6c4.5.7 4.7.9 4.7 4.1 0 4.1-.6 4.5-8.9 5.5-3.6.4-12.9 1.5-20.6 2.4-19.1 2.3-48 8.8-50.9 11.6-.6.5-1.8.9-2.8.9-5.2 0-37.6 14.1-59.1 25.7-47.6 25.7-98.4 72.7-132.8 122.8-3.1 4.4-7.1 10.3-9.1 13-4.8 6.7-22.4 36.9-24.6 42.2-1.6 4-2 4.3-5.4 4.3-3.5 0-3.8-.2-4.4-3.6z" fill="#020315" fill-rule="nonzero" />
  <path d="m743.5 1326c-23.2-1.4-42.1-3-52.7-4.5-5.7-.8-12.4-1.5-14.9-1.5s-5.9-.4-7.5-1c-3.1-1-16.2-2.5-33.9-4-21.5-1.7-75.3-17-112-31.8-22.9-9.2-57.1-27-75.8-39.4-6.5-4.3-12.8-7.8-14-7.8-2.2 0-10.6-7.8-25.7-23.7-14.4-15.3-26-29.8-37.3-46.7-7.3-10.8-8.5-15.6-4.9-18.9 4.2-3.8 17.1-8.1 31-10.4 1.8-.3 3.5-.9 3.8-1.4s1.9-.9 3.6-.9c1.8 0 5-.9 7.2-1.9 4.3-2 21.3-6.4 30.6-8 3-.5 10-2 15.5-3.4 14-3.4 21.4-4.7 26.8-4.7 2.6 0 8-.9 12-1.9 3.9-1.1 11-2.4 15.7-3 14.8-2 23.4-3.4 25.9-4.3 1.3-.5 9.1-1.8 17.5-2.9 8.3-1.1 18.3-2.4 22.1-2.9 3.9-.6 11.7-1.4 17.5-2 10-.9 16.2-1.6 39.5-4 23.4-2.4 24.4-2.5 25.1-.4 8.9 26 18.4 41.5 35.1 57.4 19.2 18.1 37.6 26.7 63.6 29.6 7.8.9 16 1.3 18.2.9 2.2-.3 7-1 10.6-1.4 9-1.1 22.3-6.3 39.2-15.3 5.6-3 21.4-17 27.9-24.7 7.6-8.9 15.8-22 20.7-33.1 1.9-4.1 3.9-8 4.5-8.7 1.5-1.6 42.3.6 67.1 3.6 48.1 5.8 81.9 10.9 118.5 17.7 24.7 4.6 50.6 10.4 74.5 16.9 7.2 1.9 20.5 5.4 29.7 7.8 16.8 4.2 16.8 4.2 16.8 7.9 0 3.1-.6 4.2-3.7 6.7-36.8 29.8-58.4 52.3-77.5 80.7-7.7 11.5-17.2 27-19.4 31.7-1.4 3-2.3 3.7-4.7 3.7-1.6 0-5.9 1.3-9.5 2.9-35.3 15.4-66.2 25-103.7 32.1-3.3.7-8.5 1.8-11.5 2.5s-11.3 2.1-18.5 3c-7.1.8-17 2.2-22 3-10.5 1.6-23 3-48 5.1-20.5 1.7-102 2.6-123 1.4z" fill="#020315" fill-rule="nonzero" />
  <path d="m95.4 1304.2c-1.6-1-5.8-14.5-8.4-26.7-1.1-5.5-2.5-12-3.1-14.5-.5-2.5-1.6-12.8-2.5-23-1.5-18.7-1.3-30.6.8-49 1.1-9.6 5.6-25.2 8.5-29.6 1.4-2.2 1.4-3-.3-9.4-1.6-6.3-1.7-8.3-.7-18.4.7-6.3 1.7-12.4 2.2-13.5.6-1.2 1.6-3 2.1-4.1.6-1.1 1-2.6 1-3.4 0-2.9 6.4-16.3 13.5-28.2 17.6-29.6 36.8-49.2 65.5-66.6 5.2-3.2 10-5.8 10.8-5.8s2.6-.8 4-1.9c1.5-1 5.2-2.7 8.2-3.9 3-1.1 8-3 11-4.2 13.4-5.3 29.3-8 47-8 8 0 16.2.3 18.3.6 3.4.6 3.7.9 3.7 4 0 1.8-.6 3.6-1.2 4.1-2.4 1.5-8.3 3.5-12.8 4.3-5.9 1.1-27.1 9.7-33.4 13.5-2.7 1.7-7.6 4.5-11 6.3-9.3 5.1-27.1 18.1-37.5 27.4-15.2 13.5-39 43.7-47.1 59.8-2.1 4.1-5.2 11.8-7 17-2.9 8.4-3.2 10.1-2.4 15 .9 5.5.9 5.5 6.2 5.8 5.2.3 5.2.3 5.2 4.9 0 3.7-1.5 7.8-8.1 21.2-10.5 21.5-13.2 28.4-16.8 42.8-5 20.1-6 39.6-3.5 68.1.5 5.1.3 7.2-.5 7.2-.6 0-1.1.7-1.1 1.5 0 .9-.7 2.9-1.5 4.5-1.2 2.4-2.2 3-4.8 3-1.7 0-3.7-.4-4.3-.8z" fill="#020315" fill-rule="nonzero" />
  <path d="m1271.7 1226.6c-7.1-2.6-10.7-8.5-10.7-17.3 0-4.2.6-6.7 2.5-10 1.4-2.3 3.1-4.3 3.8-4.3s1.9-.9 2.7-2 1.8-2 2.3-2 2.1-.8 3.5-1.9c1.5-1 4.5-2.1 6.7-2.4s6.3-1.1 9-1.8c5.2-1.4 15.4-1.5 33.8-.4 10.3.7 11 .8 14.3 3.8 3.2 3 3.4 3.6 3.4 9.7 0 8.2-2 12.3-8.3 17.1-6.1 4.6-16 9.9-18.4 9.9-1.1 0-2.4.5-3.1 1.2-1.9 1.9-36.6 2.2-41.5.4z" fill="#020315" fill-rule="nonzero" />
  <path d="m219.5 1191.4c-2.7-.8-7.5-2.2-10.5-3.1-6.1-1.8-8.4-3.6-9.9-7.6-2.9-7.5.1-16.6 6.4-19.6 6-2.9 14-4.4 23.7-4.5 8 0 9.1.2 16 3.7 4.1 2.1 8.6 4.9 10.1 6.3 2.5 2.3 2.7 3.1 2.7 9.8 0 8.4-.1 8.4-8.9 12.6-7.5 3.6-21.8 4.7-29.6 2.4z" fill="#020315" fill-rule="nonzero" />
  <path d="m332.4 1085.3c-2.2-5.8-3.4-10-3.4-12.6 0-1.4-.4-2.9-1-3.2-.5-.3-1-2.4-1-4.5s-.4-4.1-.9-4.4-1.2-2.5-1.5-4.8c-2.8-20.2-3.1-25.6-3-48.3.1-19.2.5-26.8 1.8-32.5.9-4.1 1.6-8.7 1.6-10.2 0-3.5 6.9-30.5 10.8-42.3 7.2-21.6 19-46.6 31.4-66.2 9.6-15.4 17.3-24.5 22.6-26.9 2-1 4.9-2.6 6.4-3.6 1.9-1.3 4.5-1.8 9.7-1.8 7.1 0 7.1 0 7.1 3.8 0 3.1-1.2 5.6-6.2 12.8-23.2 33.4-45 81.9-53.4 118.9-1.5 6.6-3.3 13.6-4.1 15.5-4.2 10-6.8 46.2-6 82.3.6 25.7.6 25.7-1.7 28.2-3.3 3.5-7.8 3.4-9.2-.2z" fill="#020315" fill-rule="nonzero" />
  <path d="m978.5 961.5c-5.1-2.5-7.5-7.2-7.5-14.4 0-6.9 1.6-10.8 5.6-14 2.1-1.7 4.1-2.1 9.8-2.1 8.3 0 10.7 1.2 13.6 7 3.7 7.2 2.4 15.6-3.2 21.2-3.5 3.5-4.2 3.8-9.5 3.8-3.2 0-7.1-.7-8.8-1.5z" fill="#020315" fill-rule="nonzero" />
  <path d="m462.4 950.1c-4.2-2.5-6.4-7.7-6.4-14.8 0-10.2 5.1-15.3 15.2-15.3s14.8 5 14.8 15.7c0 6.9-.8 9.3-4.8 13.6-2.3 2.4-3.3 2.7-9.1 2.7-4.7 0-7.5-.6-9.7-1.9z" fill="#020315" fill-rule="nonzero" />
  <path d="m986.3 924.9c-11.1-4.3-19.4-15.8-21.4-29.7-3.9-26.4 12.7-59.6 36.1-72.2 6.2-3.3 7.1-3.5 18.2-3.8 10-.4 12.6-.1 18.2 1.8 18 5.9 26 21.2 23.7 45-1.4 15.2-1.5 15.8-7.3 28-6.5 13.7-20.5 27.7-30.8 30.9-2.6.8-10.1 1.5-18 1.7-11.7.3-14.2.1-18.7-1.7z" fill="#020315" fill-rule="nonzero" />
  <path d="m478.8 915.4c-5.7-1.8-14.1-9.1-17-14.8-5.8-11.4-6.5-26.3-1.7-40.8 5-15.5 14.1-30.3 23.9-39.2 2.3-2.1 7.6-5.4 11.6-7.3 7.4-3.5 7.4-3.5 20.1-3.1 12.3.3 13 .4 19.1 3.7 11.9 6.5 17.6 17.8 17.5 35.1 0 12.5-1.4 19.1-6.3 30.7-6.7 15.6-16.7 27-28.8 33.1-7.5 3.7-7.8 3.7-20.6 3.9-9.3.1-14.5-.2-17.8-1.3z" fill="#020315" fill-rule="nonzero" />
  <path d="m205.5 698.6c-.9-6.9.1-14 3.2-24.1 5.9-18.9 18.6-37.2 40-57.7 19.6-18.9 57.8-46.6 79.8-57.9 4.4-2.3 11.5-6.1 15.7-8.6 4.2-2.4 13-6.8 19.5-9.7s14.5-6.6 17.8-8.1c5.2-2.4 10.9-4.6 34.5-13.5 2.5-.9 5.2-2 6-2.3 2.1-.8 14.7-4.9 25.5-8.2 5-1.5 10.8-3.3 13-4s6-1.8 8.5-2.5 5.5-1.6 6.8-2.1 3.2-.9 4.3-.9c1 0 2.7-.4 3.7-.9.9-.5 4.4-1.4 7.7-2.1 3.3-.6 7.6-1.6 9.5-2.1s6-1.3 9-1.9c3-.5 8.4-1.7 12-2.5 6.3-1.5 15.4-3.4 25.5-5.5 4.5-.9 21.5-3 36.5-4.5 9.4-.9 20.3-2.3 26.3-3.4 12-2 65.2-3.4 97.7-2.5 31.5.9 31.5.9 31.8 5s.3 4.1-6.9 4.7c-3.9.3-7.9 1.2-8.8 2-1.2 1.1-9.9 1.6-40.1 2.5-22.6.7-42.6 1.7-48.5 2.6-5.5.8-15.6 1.9-22.5 2.4-6.9.6-16.8 1.8-22 2.7-20.9 3.7-51 9.8-59.5 12.2-4.9 1.3-10.1 2.7-11.5 3-4.7.9-35.5 10.3-41 12.4-3 1.1-8.4 3.1-12 4.4-13.7 4.8-27.8 10.4-35 13.8-4.1 1.9-12.2 5.6-18 8.2s-12.3 5.7-14.6 7c-2.2 1.3-8.5 4.6-14 7.4-12.3 6.4-20.5 11-28.6 16.1-21.8 13.6-28.7 18.1-35.6 23-4.2 3.1-10.3 7.3-13.5 9.5-3.3 2.1-8.2 5.9-11 8.5-2.9 2.6-6.8 5.5-8.7 6.5s-15.2 13.3-29.4 27.4c-29.5 29.2-31.8 31.6-37.1 39.1-5.1 7.4-8.3 10-12.2 10-3.1 0-3.2-.1-3.8-5.4z" fill="#020315" fill-rule="nonzero" />
  <path d="m321.3 484.3c.6-5.2 2.1-13.5 3.6-19.8.6-2.2 1.4-5.8 1.9-8 3.3-14 12.1-38.9 22.6-64 16.3-38.8 48.1-91.2 76-125.4 8.4-10.2 31.4-36.6 42.2-48.3 21.8-23.7 50.5-47.9 81.9-69.3 18.5-12.5 44.5-27.5 47.8-27.5.8 0 2.2-.9 3.2-2s2.6-2 3.6-2 2.1-.4 2.4-1c.6-.9 20.8-11 22.1-11 .3 0 3.3-1.3 6.7-2.9s9.6-3.8 13.7-5.1c4.1-1.2 8.9-2.7 10.5-3.5 1.7-.7 4.5-1.6 6.3-2s4.5-1.3 6-2.1 4.4-1.7 6.5-2c2-.4 4-1.1 4.3-1.5.3-.5 1.8-.9 3.4-.9s3.1-.4 3.4-.9 2-1.1 3.8-1.4c1.8-.2 8.9-1.7 15.8-3.1 22.8-4.9 59.4-9.2 84.5-10 22.1-.8 80 1 89.5 2.7 1.9.3 7.7 1.1 12.8 1.8 9.2 1.2 9.2 1.2 9.2 4.8-.1 2.7-.7 4.1-2.7 5.5-2.5 1.8-3.3 1.9-18 .6-11.2-.9-25.8-1-53.1-.5-43.5.8-54.4 2-83.2 8.9-5.8 1.4-13.9 3-18 3.6-8.8 1.2-33.4 8-41.5 11.5-1.6.7-7.2 2.8-12.3 4.6-5.1 1.7-9.5 3.6-9.8 4-.3.5-1.2.9-1.9.9-1.8 0-37.5 17.5-47 23-3.8 2.2-7.7 4.3-8.5 4.7-6.9 3.2-35.9 23.2-50.9 35.1-47.5 37.9-115.3 114.3-158.1 178.2-2.3 3.6-6 9-8 12-6 8.8-33.9 55.6-39.2 65.5-10.5 20-16.6 32.2-17.8 36-.7 2.2-2.2 5.3-3.2 6.8-1.1 1.5-2.3 4-2.7 5.5-.6 2.2-1.4 2.8-4.5 3-3.8.3-3.8.3-3.3-4.5z" fill="#020315" fill-rule="nonzero" />
  <path d="m596.5 425c-22.4-6.3-30.8-10.1-45.9-21.1-4.9-3.5-9.6-6.8-10.7-7.4-2.7-1.4-3.4-7.4-3.4-31 .1-17.5.4-22.9 2.3-32.5 4.2-21.5 11.7-45.6 19.8-62.8 12.1-26 33.4-55.5 52.9-73.3 9.4-8.6 22-19.2 29-24.4 9.1-6.8 29.9-19.5 31.9-19.5.8 0 1.8-.4 2.1-1 .5-.9 7.3-4.2 14-7 1.1-.4 4.3-1.8 7-3 11.5-5.2 30.6-11.1 44-13.6 3.9-.7 10.2-2 14-2.9 10.8-2.5 59.7-3.2 77.5-1.2 42.3 5 73 16 105.8 38 46.5 31.2 79.5 80 93.1 137.7 3.4 14 4.1 22.9 4.1 49.1 0 26.9 0 26.9-3.5 26.9-3.4 0-3.4 0-3.7-8.6s-.3-8.6-6.1-.5c-8.3 11.5-24 24.1-37.7 30-3 1.2-6.8 2.9-8.5 3.6-4.1 1.7-7.9 3-15 5-3.3 1-7.7 2.3-9.8 3.1-2 .8-5.2 1.4-7 1.4-3.3 0-3.3 0-8.7-17.2-5.8-19-7.1-23.4-12.4-41.8-2-6.9-7.2-24.9-11.7-40-4.4-15.1-8.9-30.4-9.9-34-9.1-32.3-22.1-75.1-23.7-78.3-.8-1.6-1.8-2.7-2.3-2.5-.4.2-7.9 7.1-16.6 15.3-8.6 8.3-19.4 18.4-23.8 22.6-17.3 16.2-27.2 25.6-32 30.7-2.8 3-8.7 8.5-13.2 12.3-12.2 10.3-11.9 10.4-31.3-7.6-3.6-3.3-9.9-9.1-14.1-13-35.7-33-56.5-52.1-58.6-53.7-2.4-1.9-2.4-1.9-4.4 1.4-2.2 3.6-5 12-5 15 0 1.1-.6 3.1-1.4 4.6-.7 1.5-2.6 7.2-4.1 12.7-3.3 12.1-5 18-10.4 35-3.9 12.7-10.3 35-12.2 43-.6 2.2-2.6 9.4-4.5 16-3.6 12-9 31.8-12.4 45-1 3.9-3.7 13.8-5.9 22-2.3 8.3-5.1 18.5-6.3 22.8-2.1 7.7-2.1 7.7-6.7 7.6-2.5 0-9.1-1.3-14.6-2.9z" fill="#020315" fill-rule="nonzero" />
  <path d="m650 191h311v225h-311z" fill="#020315" transform="matrix(1.13505 0 0 1 -129.781 0)" />
  <path d="m687.1 427.1c-2.7-1.8-.6-13.2 11.9-65.1 3.8-15.7 7.9-33.3 9.1-39.2 2.2-10.8 2.2-10.8 6.4-10.8 4.1 0 4.6.4 31.5 26.8 15 14.7 27.8 26.7 28.5 26.7s13.4-11.7 28.1-26c14.8-14.4 28.2-27.1 29.8-28.3 3.2-2.4 10.4-3.1 11-.9.2.6 1.2 5 2.1 9.7 1 4.7 2.1 9.9 2.5 11.5.4 1.7 1.3 5.7 2 9s1.6 7.1 2 8.5 1.4 5.2 2.1 8.5 1.6 6.4 2.1 7c.4.5.8 2.4.8 4.1 0 1.8.5 3.6 1 3.9.6.3 1 1.7 1 2.9 0 1.3.6 4.6 1.4 7.2 2.9 10.2 7.6 31.1 7.6 34.1 0 3.1 0 3.1-7.2 3.8-4 .3-12.2 1.2-18.3 2-11.4 1.4-17.9 1.9-48 3.5-26.9 1.4-105.7 2.3-107.4 1.1z" fill="#020315" fill-rule="nonzero" />
  <path d="m782 1369.1c-1.4-.4-8.6-1.1-16-1.5s-17.8-1.4-23-2.2c-5.2-.9-12.6-2-16.5-2.5-11.1-1.5-27.1-4.2-35-5.8-10.2-2.2-26.1-5.2-29.5-5.7-1.9-.3-4.4-.9-5.5-1.4s-4.5-1.4-7.5-2.1c-3-.6-10.9-2.7-17.5-4.6s-13.3-3.8-15-4.3c-32.4-9-64.3-21.8-93.3-37.4-34-18.3-61.9-37.4-84.4-57.7-6.5-5.9-7.8-7.5-7.8-10.1s.2-2.8 1.5-1.8c.8.6 1.9.9 2.5.5.6-.3 7.2 3.4 14.8 8.3 27.8 18.2 62.7 35.2 98.2 47.9 30 10.6 73.2 22 87.2 22.8 5.1.3 11.3 1 13.8 1.5s7.7 1.1 11.5 1.4c3.9.4 9 1 11.5 1.6 2.5.5 9.7 1.4 16 2s13.1 1.3 15 1.6c5.4.7 26.7 2.3 45.5 3.3 21.2 1.2 93.1.6 108.5-.9 6.3-.6 14.2-1.3 17.5-1.5 11.2-.8 28-2.6 37-4 5-.8 14.9-2.2 22-3 7.2-.9 15.5-2.3 18.5-3s8.2-1.8 11.5-2.5c37.5-7.1 68.4-16.7 103.7-32.1 3.6-1.6 7.9-2.9 9.4-2.9s3.3-.8 4-1.7c1.2-1.6 1.3-1.4 1.4 2 0 2.6-1.7 7.3-5.1 14.5-4.9 10.2-15.9 40.8-15.9 44.2 0 1-2.3 2.5-6.2 4.2-7 2.9-29.3 10.3-37.8 12.4-3 .8-6.4 1.8-7.5 2.3-1.9.8-14.3 3.6-21 4.7-1.6.3-3.9.9-5 1.4s-6.3 1.4-11.5 2-9.9 1.5-10.5 1.9c-.5.5-3.7 1.1-7 1.4-11.2 1-26 2.6-33.5 3.7-4.1.6-10.6 1.5-14.5 2.1-8.8 1.2-121.1 2.2-124.5 1z" fill="#164A6A" fill-rule="nonzero" />
  <path d="m99.6 1320.8c-.3-.7-1.4-4.2-2.5-7.7-2.2-6.8-2.8-15.1-1.1-15.1.6 0 1 .6 1 1.4s.7 1.6 1.5 2c1.5.5 4.5-3.9 4.5-6.7 0-2.1 2.4-6.7 3.5-6.7 1.8 0 3.5 6.2 4.7 17.6 1.1 11.2 1.1 11.2-1.8 13.8-3.1 2.7-9.2 3.6-9.8 1.4zm5.4-28.3c0-.3-.2-.5-.5-.5s-.5.2-.5.5.2.5.5.5.5-.2.5-.5z" fill="#164A6A" fill-rule="nonzero" />
  <path d="m1347.8 1242c-6-4.7-6.3-14-.7-21 5.3-6.6 10.3-9 18.6-9s11.8 2.1 12.9 7.6c2.5 13.1-7.8 24.4-22.3 24.4-4.5 0-6.7-.5-8.5-2z" fill="#164A6A" fill-rule="nonzero" />
  <path d="m172.6 1210c-4.2-1.3-6.6-3.9-7.2-8.1-.6-3.3-1.1-3.9-5.1-5.4-5-1.9-6.3-4.2-6.3-10.9 0-5.5 1.7-10.4 4-11.6 2.4-1.3 11.5-1.3 16 0 2.5.7 5.8 3.5 11.8 10 8.2 9.1 8.2 9.1 8.2 14.6 0 6.6-1.1 8.9-5 10.9-3.1 1.6-11.7 1.9-16.4.5z" fill="#164A6A" fill-rule="nonzero" />
  <path d="m1267 1196.8c0-4.4.3-4.9 5.6-9.6 8.1-7.3 12.6-8.4 36.5-8.9 21.7-.6 23-.3 29.7 6 2.6 2.6 3.2 3.8 3.2 7.4 0 2.4-.2 4.3-.5 4.3-.2 0-2.1-1.7-4.2-3.8-3.4-3.4-4.3-3.8-9.3-3.8-7.9-.1-15.4-.7-16.4-1.2-2-1.1-11.6-1.2-11.6-.1 0 .6-.7.9-1.5.5-.8-.3-1.5-.2-1.5.2s-1.5.8-3.2.9c-7.2.4-12.4 1.6-15 3.4-1.4 1.1-3 1.9-3.5 1.9s-1.5.9-2.3 2-2 2-2.7 2c-.6 0-1.7.8-2.2 1.8-.8 1.3-1 .7-1.1-3z" fill="#164A6A" fill-rule="nonzero" />
  <path d="m1376 1195c-2.7-2.7-2.8-12.3-.1-16.3 2.3-3.6 8-8.3 11.6-9.7s13.6-1.2 15.6.3c2.7 2.1 3.9 5.4 3.9 10.7 0 6.4-2.9 10.5-9.9 14.3-6.4 3.5-17.9 3.9-21.1.7z" fill="#164A6A" fill-rule="nonzero" />
  <path d="m214.5 1193.6c-15.2-3.5-20.5-8.7-21.3-21-.4-7.1-.4-7.1 4.2-12.3 2.6-2.8 6.8-6.2 9.4-7.5 4.2-2.1 6.1-2.3 18.7-2.3 13.4 0 14.3.1 20.3 2.9 7.4 3.4 13.8 10.1 14.8 15.3.4 1.9.4 5.7.1 8.4-.8 6.8-7 14.2-13 15.7-7.4 1.9-26.6 2.3-33.2.8zm31.8-7.6c8-3.9 8.7-4.6 8.7-9.6 0-5.3-2.4-7.8-12.5-12.9-6-3.1-8.2-3.7-13.5-3.6-7.5 0-15 1.5-20.5 4.2-5.2 2.5-8.1 8.4-6.5 13.3 1.7 5.3 3.1 6.1 20.5 10.9 7 2 16.6 1 23.8-2.3z" fill="#164A6A" fill-rule="nonzero" />
  <path d="m1434 1175.1c0-.5-.9-1.1-2-1.4s-2-1.2-2-2.1-.8-1.6-2-1.6c-1.6 0-2-.7-2-3.7 0-3.8 3.5-9.3 5.9-9.3.6 0 1.1-.4 1.1-1 0-.5 2.4-1 5.4-1s5.8.5 6.1 1c.3.6 1.6 1 2.9 1 3.6 0 6.5 8.5 5.2 15.5-.7 3.5-.7 3.5-9.6 3.5-5 0-9-.4-9-.9z" fill="#164A6A" fill-rule="nonzero" />
  <path d="m336.2 1098.3c-2.3-6.2-3.2-9.8-3.2-12.9 0-4 1.7-5.3 2.9-2.2.9 2.3.9 2.3 2.1-.4.7-1.5 1.7-2.5 2.1-2.2.5.3.9-.4.9-1.5 0-2.5 1.3-2.7 3.1-.5 1.4 1.7 1.6 9.6.4 17.7-.7 4.5-.8 4.7-4 4.7-2.6 0-3.5-.5-4.3-2.7z" fill="#164A6A" fill-rule="nonzero" />
  <path d="m340.7 1071.3c-.4-.3-.7-4.4-.7-9 0-7.6.2-8.3 2-8.3 1.9 0 2 .7 2 9 0 6.8-.3 9-1.3 9-.8 0-1.7-.3-2-.7z" fill="#164A6A" fill-rule="nonzero" />
  <path d="m321 1005.5c0-5.7.3-7.5 1.4-7.5 1.5 0 2.6 3 2.6 7.5s-1.1 7.5-2.6 7.5c-1.1 0-1.4-1.8-1.4-7.5z" fill="#164A6A" fill-rule="nonzero" />
  <path d="m975 503c-1.4-.4-8.3-3-15.5-5.7-20.8-8-56.4-19.2-71.2-22.4-2.4-.5-6.2-1.3-8.5-1.8-2.4-.6-5.6-1.3-7.3-1.6-1.6-.3-4.8-1-7-1.5-2.2-.4-6.7-1.4-10-2-3.3-.7-10-2.1-15-3.1-16-3.4-17.9-3.8-26-4.9-4.4-.6-10.2-1.5-13-2-2.7-.5-9.5-1.4-15-2s-14.3-1.5-19.5-2.1c-15.7-1.7-41.2-2.8-64.2-3-21.8-.1-21.8-.1-21.8-4.2 0-6.1 5.1-25.7 6.7-25.7.7 0 1.3.6 1.3 1.4s.6 1.6 1.4 1.9c1.6.6 64.9 0 88.1-.8 23.8-.9 48-2.4 60.5-4 6.3-.8 14.8-1.7 18.8-2.1 5.7-.5 7.2-.9 6.8-2-.3-.9.2-1.4 1.4-1.4 1.3 0 2.2.9 2.6 2.8.5 2.4 5.2 22.6 7.6 32.5.5 2 1.5 3.7 2.2 3.7 2.4 0 56-26.6 59.3-29.4s3.3-2.8 2.7-11.2c-.5-6-.4-8.4.5-8.4.6 0 1.1.7 1.1 1.5 0 1.8.1 1.8 4.7.1 2.1-.8 6.5-2.1 9.8-3.1 7.1-2 10.9-3.3 15-5 1.7-.7 5.5-2.4 8.5-3.6 6.8-3 17.6-10 25.6-16.7 7-5.8 17.4-19.6 20.6-27.2 1.1-2.8 2.4-4.8 2.7-4.4.3.3.9 6.5 1.2 13.7.6 13.2.6 13.2.5-2-.2-14.2.6-19.6 1.8-12 1.1 6.9 1.3 33 .4 40.4-.5 4.3-1.3 11.4-1.7 15.8-1.5 15.2-9.4 39-20.1 61-6.6 13.5-18.3 32.1-23.8 37.8-3.7 3.8-6.6 4.5-12.2 2.7z" fill="#164A6A" fill-rule="nonzero" />
  <path d="m541 390s289.947 43.194 488.9-43.4c1.52-.661 3.95 36.493-7.46 74.584-11.13 37.171-27.204 76.045-42.35 82.762-109.451-51.084-272.197-70.232-416.089-45.946-13.67-19.69-21.009-44.053-23.001-68z" fill="#164A6A" />
  <g fill-rule="nonzero">
    <path d="m749.8 487.3c-28.2-.3-32.8-.5-32.8-1.8 0-.8.5-1.5 1.2-1.5.6 0 1.9-.7 2.9-1.5 1-1 4.5-1.8 8.8-2.2 6.8-.6 8.9-1.7 5.6-2.9-2.9-1.2-1.5-2.4 2.8-2.4 9.5 0 31.3 2.4 33.2 3.7 1.2.8 5 1.3 10.3 1.3 8.3 0 8.3 0 8 3.8-.3 3.5-.5 3.7-3.8 3.7-1.9.1-18.2-.1-36.2-.2z" fill="#164A6A" />
    <path d="m554.1 451.4c-8.4-17.4-16-43.9-16.1-56.1 0-4.1.4-5.3 1.5-5.3.8 0 1.5.6 1.5 1.3s.9 1.7 1.9 2.2c1 .6 5.8 3.9 10.7 7.4 15.1 10.9 25.6 15.7 47.5 21.6 11 2.9 11.9 3 11.9 1 0-.8.7-1.5 1.5-1.5s1.5.6 1.5 1.4c0 1.8 3.9 4.5 10.5 7.3 16.2 7.1 20.4 8.6 28.1 10.5 8.4 2 8.4 2 8.4 5.4 0 2.2-.6 3.6-1.7 4.2-1 .5-9 1.2-17.8 1.6s-18 1.2-20.5 1.7c-2.5.6-10.1 1.4-17 1.9s-15.4 1.3-19 1.9c-3.6.5-11.5 1.3-17.6 1.6-11 .7-11 .7-15.3-8.1z" fill="#164A6A" />
    <path d="m960.5 97.4c-2.7-.7-7.9-1.8-11.5-2.3s-11.2-1.7-17-2.5c-5.8-.9-16.3-2.4-23.5-3.4-10.7-1.4-13-2-13.3-3.5-.2-.9.2-1.7 1-1.7 1.4-.1 5.8-3.4 5.8-4.4 0-.3-1.2-.6-2.7-.6-2.2 0-2.5-.2-1.3-1 1.9-1.3 13.5-1.3 18 0 1.9.5 7.1 1.6 11.5 2.4 14.2 2.5 28 5.5 32.6 6.9 4 1.3 8.8 2.7 14.7 4.2 1.7.5 2.2 1.4 2.2 4.1 0 3.4 0 3.4-5.7 3.3-3.2 0-8-.7-10.8-1.5z" fill="#164A6A" />
    <path d="m1117.7 1485c-4.2-1-8.4-2.3-9.2-3-1-.9-1.5-3.2-1.5-7.5 0-5.7.3-6.6 2.6-8.4 1.5-1.2 3.4-2.1 4.3-2.1 1 0 2.1-.4 2.7-.8.5-.5 2.3-1.4 3.9-2.1 3-1.3 3-1.3-.4 2.3-1.9 2-3.2 3.6-2.8 3.6.9 0 13.2-6.5 16-8.5 2.1-1.5 2.1-1.5-1.3-1.5s-3.2-.4 15.6-18.8c19-18.6 24.6-25.3 38.2-45.2 11.8-17.3 19.1-27.3 22.9-31.5 11.1-12 11.7-12.8 9.7-12.1-1 .3-12.2 1-24.9 1.6-12.6.5-26.1 1.6-30 2.4-3.8.8-14.6 2.9-24 4.6-9.3 1.7-17.9 3.5-19 4-1.1.4-5.9 1.8-10.7 2.9-10.4 2.5-18.3 2.8-19.1.6-1.2-3-1.8-16.1-.9-18.5.6-1.6.6-6.6 0-13.8-.8-9.8-.7-11.7.7-13.8 1.9-2.9 4.9-3.3 4-.5-.5 1.6-.2 1.8 1.5 1.4 2.5-.7 2.5-.2.4 10.4-1.5 7.6-1.3 15.3.4 15.3.4 0 1.5-1.9 2.4-4.3 2.2-5.3 19.8-35.5 24.6-42.2 2-2.7 6-8.6 9.1-13 34.4-50.1 85.2-97.1 132.8-122.8 21.5-11.6 53.9-25.7 59.1-25.7 1 0 2.2-.4 2.8-.9 2.9-2.8 31.8-9.3 50.9-11.6 7.7-.9 17.1-2 20.8-2.5 7.2-.8 11.6-3 6.3-3-2.4 0-2.7-.2-1.6-1.5.7-.8 2.7-1.5 4.4-1.5 4.8 0 21.2 4.8 29.4 8.6 15 6.9 35.2 20.4 35.2 23.5 0 .6 1.3 2.7 2.9 4.7 9 11.3 11.4 51.5 5 83.7-2.3 11.9-8.5 33.4-13.5 47.1-4.4 12.2-21.4 46.4-25.9 51.9-1.8 2.2-4.9 6.5-6.8 9.6-7.9 12.5-33.5 41.9-45.9 53-13.4 11.9-44 34.5-52.4 38.7-2.3 1.2-5.6 3.4-7.4 4.9-1.9 1.5-4.7 3.3-6.4 3.9-1.7.7-8.7 3.7-15.6 6.9-13.7 6.2-45.8 17.2-58.5 20-4.4 1-10.4 2.4-13.4 3.2-30.8 8.3-97.2 13-117.4 8.3zm244.7-245.4c8.7-3.6 14.9-13 12.7-18.9-3.3-8.7-16.6-7.1-24.7 3-4.2 5.2-4.8 7.6-3 11.2 3.1 5.9 8.3 7.5 15 4.7zm-52.2-16.4c.7-.7 2-1.2 3.1-1.2 5.1 0 22.2-11.6 25-17 2.7-5.2 1.7-13.3-2-17.2-6.1-6.4-8.8-7.1-27.2-6.5-20.7.6-25.7 1.9-33.5 8.9-3.1 2.7-5.6 5.4-5.6 5.8 0 .5-1.3 3.1-3 5.7-1.6 2.6-3 5.9-3 7.4 0 6 4.6 12.2 10.7 14.5 4.7 1.8 33.7 1.4 35.5-.4zm83.9-31.9c10.1-5.5 12.7-13.8 6-19-4.8-3.7-15.8 1.2-21.2 9.4-6.4 9.6 3.6 16 15.2 9.6zm55.1-20c.4-5.2-1.8-11.7-3.7-10.9-.7.2-2.1-.1-3.1-.8-2.3-1.5-6.4-1.8-6.4-.5 0 .5-.7.9-1.5.9-.9 0-1.2.6-.8 1.7s.3 1.4-.6.9c-.7-.5-1.8 0-2.6 1-1.7 2.3-1.9 3.4-.5 3.4.6 0 .9-.4.8-.9-.2-.5.2-.9.7-1 .6-.1 1.1.4 1.1.9.1.6.3 1.2.4 1.5s.3 1.1.4 1.8c0 .6 1.4 1.3 3 1.5 2.2.3 2.6.6 1.5 1.3-.9.6.7.9 4.9.9 5.2 0 6.2-.3 6.4-1.7z" fill="#027FFE" />
    <path d="m345.5 1465c-2.7-.5-7.5-.9-10.5-.9-4.8-.1-13.6-1.7-46-8.6-17.8-3.8-39-11.1-63.5-21.8-16.8-7.4-29.8-14.6-42.3-23.7-3.4-2.5-7.7-5.5-9.5-6.7-7-4.9-17.3-13-21.8-17.3-2.6-2.5-6.5-5.8-8.6-7.4-8.1-6.3-22.2-23.7-30.9-38.3-3.8-6.3-6.2-9.3-7.4-9.3-3 0-6.7-13.8-4.1-15.4.5-.3 1.1.4 1.4 1.5.6 2.2.6 2.2 3.6-.2 2.8-2.3 2.9-2.7 2.4-7.9-.3-3-1-7.5-1.5-10-5.6-26.5-4.8-59.2 2.1-84.5 3.5-12.9 6.2-19.6 16.5-40.6 4.2-8.6 7.6-16.4 7.6-17.3s-.8-1.6-2-1.6c-5.2 0-.4-6.5 10.5-14 2.8-1.9 6.5-4.8 8.4-6.3 3.3-2.8 12.4-7.4 19.1-9.6 7-2.4 24.8-4.1 42.8-4.1 18.4 0 18.4 0 32 5.1 14.6 5.4 24.9 10.8 42.7 22.5 40.4 26.4 83.2 72.6 109.7 118.4 15.2 26.3 28.3 59.2 27.6 69.2-.3 4.3-.3 4.3-8.8 4.6-4.7.2-13.7-.2-20-.8s-15.8-1.5-21.2-2c-12.4-1.2-73.1-2.5-75.1-1.7-1.3.5-.2 1.9 4.5 6.4 7.3 7 16.5 19 32.4 42.3 13.7 20.2 23.5 32.4 32 39.6 10.1 8.7 24 18.8 32.8 24 7.7 4.4 8.5 5.2 8.6 7.9 0 2.6-.6 3.2-4.6 4.9-7.4 3-47.4 5.5-58.9 3.6zm-158.8-259c3.4-2.1 4.9-5.6 3.9-9.2-.3-1.3-4.3-6.2-8.9-11-7.4-7.8-8.7-8.7-12.9-9.3-2.5-.4-5.6-.4-6.8 0-2.9.9-5.3 6.9-4.5 11.2.5 2.9 1.4 3.8 5.3 5.5 5.8 2.5 5.2 2 5.7 5.8.5 4.1 2.9 6.8 6.9 7.9 5 1.5 7.9 1.2 11.3-.9zm57.5-16.1c8.3-1.9 15.6-13.1 12.9-20.1-1.8-4.7-7.9-10.4-14.3-13.4-5.7-2.6-7.3-2.9-17.3-2.9-13.3 0-17.9 1.8-25.1 9.8-4.4 4.9-4.6 5.4-4 9.5.6 4.2 3.3 9.3 6.6 12 7.2 6.2 25.9 8.5 41.2 5.1z" fill="#027FFE" />
    <path d="m1588.8 1274.7c-9.6-5-9.6-5-10.5-13.1-.8-8.5-.6-42.8.4-46 .5-1.6 1.2-1.8 6.6-1.2 3.3.3 6.8 1.2 7.6 2 .9.8 2.8 1.8 4.3 2.1 2.4.6 3.1 1.7 5.2 8.4 3.2 10.3 9.4 35.3 10.2 41.7.4 3.8.2 5.9-1 8.2-1.6 3.1-1.9 3.2-7.4 3.1-4.8-.1-7.3-1-15.4-5.2z" fill="#027FFE" />
    <path d="m1174 1161.4c0-.4 1.9-2.3 4.3-4.4 2.3-2.1 4-4 3.7-4.2s-7.9-2.3-17-4.6-22.3-5.8-29.5-7.7c-55.9-15.1-137-29.3-200.5-35.1-9.1-.8-19.6-1.9-23.5-2.4-3.8-.5-12.1-1-18.4-1.1-9.5-.1-11.6.1-12.6 1.5-3.2 4.3-3.3-1.1-.4-10.9 6.2-20.4 7.7-31.5 7.8-57.1.1-20.6-1.1-26.8-6.1-32.1-6.4-6.7-12-5-26.6 8.1-5.3 4.7-12.8 10.6-16.7 13.1-10.2 6.5-27 14.5-30.5 14.5-1.7 0-6.5.9-10.8 2.1-7.1 2-9.4 2.1-30.7 1.6-18.2-.5-25-1-32.3-2.6-19.1-4.3-34.6-13.1-51.8-29.4-5.2-5-10.4-9.7-11.6-10.5-2.6-1.9-6.4-1.8-8.6 0-.9.8-2.4 1.8-3.3 2.1-2.5.8-5.9 8.7-7.1 16.4-2.4 15.4.2 54.3 4.8 69.7 1.6 5.6 1.8 10.6.5 10.6-.5 0-1.2-.7-1.5-1.6-.5-1.3-1.5-1.5-4.8-1-2.3.4-8.7 1.1-14.2 1.7-5.6.5-14.4 1.4-19.6 1.9-5.2.6-14.2 1.5-20 2-5.8.6-13.6 1.4-17.5 2-3.8.5-13.8 1.8-22.1 2.9-8.4 1.1-16.2 2.4-17.5 2.9-2.5.9-11.1 2.3-25.9 4.3-4.7.6-11.8 1.9-15.7 3-4 1-9.4 1.9-12 1.9-5.4 0-12.8 1.3-26.8 4.7-5.5 1.4-12.5 2.9-15.5 3.4-9.3 1.6-26.3 6-30.6 8-2.2 1-5.4 1.9-7.2 1.9-1.7 0-3.3.4-3.6.9s-2 1.1-3.8 1.4c-9.8 1.6-18.2 3.9-23.9 6.5-6.8 3-9.5 5.4-8.4 7.2.5.8-.2 1-2.1.8-2.6-.3-3.6-1.6-9.6-13.3-9.3-18-17.8-38-17.8-41.9 0-4.3 1.1-5.2 2.7-2.4 1.2 2.2 1.2 2.1 1.3-1.5 0-2.1.4-4.6 1-5.6.6-1.2.6-3-.1-5.2-.5-1.9-1.2-18.2-1.5-36.3-.6-37-2.1-33.5 13.1-30.6 3.6.7 11.5 1 19.5.7 13.1-.4 13.7-.5 20.5-4 8.8-4.5 14.2-8.7 17.2-13.5 2.7-4.5 2.9-8.2.4-11.3-1-1.3-2.6-3.9-3.5-5.8-2.1-4-7.1-9.1-9-9.1-.8 0-4-1.3-7.1-3-5.6-3-5.9-3-21.5-3-12.8 0-16 .3-17 1.5-.7.8-2.3 1.5-3.7 1.5-1.9 0-2.3-.4-1.9-1.8.3-.9 1.7-6.9 3.1-13.2 8.4-36.8 30.2-85.2 53.3-118.4 3.4-4.9 6.2-9.3 6.2-9.8 0-.4-1.1-.8-2.5-.8-1.8 0-2.5-.5-2.5-1.8 0-2.5 3.1-5.2 11.5-9.9 3.9-2.2 10.6-6.1 15-8.7 4.4-2.5 8.7-4.6 9.6-4.6.8 0 1.9-.4 2.5-.9.5-.5 2.7-1.4 4.9-2.1 3.9-1.3 17.3-7.1 20.7-9 1-.6 3.8-1 6.3-1 4.4 0 4.5 0 4.5 3.3 0 2.8-1.5 5.1-9.1 13.8-13.5 15.4-25 33.9-31.9 51.4-4.3 10.8-9.6 28.6-10.9 36.5-.5 3.6-1.5 9.5-2.1 13.1-1.3 8.5-1.3 37.5 0 47.6 2.4 17.7 6.5 31.9 14 47.9 6 12.9 12.9 23 22.6 33.3 13.2 14 24.2 20.6 43.1 25.8 8.5 2.3 11.5 2.6 23.1 2.5 9.7-.1 14.1-.6 16-1.7 1.5-.8 6.3-2.8 10.7-4.5 40.2-15.1 75.1-66.6 83.6-123 6.2-41.2 1-83.1-14.1-113-11.2-22.2-25.4-37.7-43.4-47-8.4-4.4-8.6-4.6-8.6-8.1 0-2 .6-4.1 1.3-4.6.6-.6 4.8-1.7 9.2-2.6s15.5-3.2 24.7-5.1c31.7-6.7 65.3-11.7 92.3-13.6 7.7-.6 19.6-1.5 26.5-2.1 18.2-1.6 107-1.7 126-.2 31.5 2.6 39.7 3.3 50.5 4.7 6.1.8 14.2 1.8 18 2.1 3.9.4 10.4 1.3 14.5 2 4.1.8 11.8 1.9 17 2.5s10.9 1.5 12.5 2c1.7.5 5.5 1.2 8.5 1.6 14.8 1.7 54.9 10.7 58.5 13 2 1.3 2.5 2.5 2.5 5.5 0 3.4-.4 4.1-2.7 4.9-1.6.6-3.6 1.5-4.5 2-1 .6-2.4 1-3.3 1-.8 0-3.4.9-5.7 1.9-2.4 1.1-6 2.7-8.1 3.6-6.2 2.7-18.7 12.7-29.3 23.6-15.1 15.6-26.4 33.5-34.2 53.9-5.6 15-7.9 22.5-9.2 31-.6 4.1-1.6 9.8-2.2 12.5-.5 2.8-1.2 13.3-1.5 23.5-.9 27.4 1.2 42.5 8.9 65.5 4.7 13.9 8 20.9 15.2 32 13.6 20.8 30.2 35 50.2 42.8 17.7 6.9 28 8.1 45.5 5.3 15.7-2.6 24.9-6.2 37.6-14.7 28.4-19.1 49.8-50.1 60.8-87.9 9.4-32.4 9.9-70.5 1.5-103.3-6.6-25.5-18.1-47.1-34.3-64.5-6.5-6.9-7.7-8.7-7.7-11.6 0-5.7 5.5-6.1 21.1-1.5 16.7 5 67.7 26.4 85.9 36.1 5.2 2.8 12 6.3 15 7.8 10.8 5.4 32.4 18.8 46 28.6 18.9 13.7 48.6 42.9 61.6 60.6 13.9 18.8 30.4 47.9 30.4 53.4 0 3.1-5.2 9.4-7.9 9.4-2 0-17.8 16.8-22.7 24.2-6.5 9.7-11.9 21.8-15 33.8-2.4 9.1-2.8 13-3.2 28.8-.4 17.8-.5 18.2-2.6 18.2-3.4.1-11.5 2.5-12.8 3.8-.7.7-2.2 1.2-3.4 1.2-1.3 0-2.5.4-2.8.9s-2.9 1.1-5.8 1.3c-2.9.3-7.4 1.4-9.9 2.6-2.6 1.2-8.1 3.3-12.2 4.6-8.4 2.8-24.7 10-28.9 12.8-1.4 1-3.2 1.8-4 1.8s-1.8.4-2.4.9c-.5.4-4.5 2.8-8.9 5.1-14.2 7.7-40.7 25.5-46 31-2.1 2.2-3.8 3-6.2 3-1.8 0-3.3-.3-3.3-.6zm63-143.1c16-5.3 26.2-17.8 22.2-27.3-3.8-9.3-11.5-15.7-23.2-19.3-3.6-1.1-6.9-2.3-7.5-2.8-.5-.5-5-.9-10-.9-12.6 0-28 4.3-33.3 9.2-1.5 1.4-3.7 2.9-4.9 3.3-1.3.3-2.3 1.1-2.3 1.6s-1.6 2.7-3.6 4.9c-3.2 3.5-3.6 4.5-3.1 7.6 1.2 7.1 5.4 13 14.9 20.9 1.7 1.4 12.9 5 18.3 5.8 7.2 1.2 25-.5 32.5-3z" fill="#027FFE" />
    <path d="m1689 1151.3c-.8-.3-5.6-3.8-10.6-7.8-5.1-4-11.3-8.5-13.9-10.1-2.5-1.6-7.4-5.2-10.8-8-6.3-5.1-23.6-16.4-25.2-16.4-.4 0-2.2-1-3.9-2.3s-8.5-5.6-15.1-9.7c-27.5-16.7-37.2-24.6-48.5-39.2-8.1-10.4-12.9-21.1-14.3-32.1-1.9-14.2 1.8-24.1 11-29.3 2.7-1.5 5.6-3.4 6.7-4.3 1.4-1.3 4.5-1.6 15.5-1.6 8.1 0 15.3.5 17.8 1.3 13.5 4.1 44.2 36.1 61.5 64.2 18.3 29.5 38.8 78.4 38.8 92.2 0 3.7-.1 3.8-3.7 3.7-2.1 0-4.5-.3-5.3-.6z" fill="#027FFE" />
    <path d="m121 1139.9c0-4.2 5.3-19.6 10-28.9 8.1-16.1 31.9-46.3 47.1-59.8 10.4-9.3 28.2-22.3 37.5-27.4 3.4-1.8 8.3-4.6 11-6.3 6.3-3.8 27.5-12.4 33.4-13.5 9.2-1.7 17.5-6 11.5-6-2.7 0-2.8 0-1-2 1.9-2.1 5.1-2.5 11.7-1.4 3.8.7 3.8.7 3.2 10.8-.4 6.5-1.2 11.3-2.3 13.6-13.6 27.5-30.8 53.5-38.7 58.7-2.7 1.8-5.7 3.9-6.7 4.8-1.9 1.7-8.9 4.5-11.3 4.5-.7 0-4.6 1.5-8.6 3.4-11 5-12.6 5.6-16.2 5.6-1.9 0-3.9.7-4.6 1.5s-2.2 1.5-3.4 1.5c-2.6 0-19.3 6.5-21.5 8.3-.9.8-4.3 2.4-7.6 3.7-7.3 2.9-10.6 4.7-21.1 11.7-8.2 5.4-18.4 15.8-18.4 18.7 0 .9-.8 1.6-2 1.6-1.6 0-2-.7-2-3.1z" fill="#027FFE" />
    <path d="m1440.5 1101c-9.9-2.1-22.5-4.9-28-6.3s-16.2-3.7-23.8-5.2c-24.2-4.6-30.9-8.1-36.8-19.7-2.2-4.3-2.9-7.1-2.9-11.3 0-4.4-.3-5.5-1.6-5.5-4.2 0 2.5-24.6 9.7-35.6 6.1-9.4 16.3-18.6 25.6-23 9.2-4.3 18.2-5.7 34.2-5.2 10.3.3 10.9.4 20.5 5 7.8 3.8 11.1 6.1 16 11.1 23.3 24.2 36.1 53.2 34.2 77.9-.7 9.9-3.2 15-9.3 18.9-4.2 2.6-5.5 2.9-12.2 2.8-4.6 0-14.7-1.6-25.6-3.9z" fill="#027FFE" />
    <path d="m122.6 1153.8c-1.7-5.4-1.5-5.8 1.9-5.8 1.8 0 4.9.7 7 1.6 3.6 1.5 3.7 1.6 1.9 3.5-2 2.2-10.2 2.7-10.8.7z" fill="#01D8B6" />
    <path d="m821 1118c0-5 0-5 3.3-5 4.4.1 7.7 3 7.7 6.9 0 3.1 0 3.1-5.5 3.1s-5.5 0-5.5-5z" fill="#01D8B6" />
    <path d="m1201.5 1024.4c-5.5-.9-16.6-4.5-18.3-5.9-10.9-9.1-14.4-14.7-15-24.2-.4-6.1-.3-6.4 3.2-10.3 2-2.2 3.6-4.4 3.6-4.9s1-1.3 2.3-1.6c1.2-.4 3.4-1.9 4.9-3.3 3-2.8 6.8-4.4 17.3-7.3 7.4-2 30.2-2.8 32-1 .6.5 3.9 1.7 7.5 2.8 12.3 3.8 20.7 11.2 24 21.2 1 3.3 1.1 5.1.1 9.3-1.5 6.7-3.6 10-10.1 15.3-8.1 6.6-17.7 9.4-34.8 9.9-7.5.2-15 .2-16.7 0z" fill="#01D8B6" />
    <path d="m360 1020.9c-7.7-.4-14-1.4-16.3-2.4-3.9-1.6-3.9-1.6-3.3-6.3.3-2.6.8-7.6 1.1-11.2 1.9-20.7 3.9-29.5 7.8-33.7 2-2.2 2.6-2.3 20.8-2.3 18.7 0 18.7 0 24.4 3 3.1 1.7 6.3 3 7.1 3 1.9 0 6.9 5.1 9 9.1.9 1.9 2.5 4.5 3.5 5.8 2.8 3.5 2.5 12.5-.4 17.3-5 8.1-18.6 15.8-31 17.6-4.3.7-8.3 1.1-9 1.1-.7-.1-6.8-.5-13.7-1z" fill="#01D8B6" />
    <path d="m288.5 790c-8.6-3.5-25.1-12.3-34.8-18.6-20.1-13-34.6-28.9-42.7-46.9-4.8-10.6-6.6-24.9-3.5-27.5 1.3-1.1 1.5-.8 1.5 1.4 0 2.4.2 2.5 2.1 1.4 1.1-.7 4.1-4.2 6.6-7.8 6.1-8.6 7.7-10.3 37.9-40.1 14.2-14.1 27.5-26.4 29.4-27.4s5.8-3.9 8.7-6.5c2.8-2.6 7.7-6.4 11-8.5 3.2-2.2 9.3-6.4 13.5-9.5 6.9-4.9 13.8-9.4 35.6-23 8.1-5.1 16.3-9.7 28.6-16.1 5.5-2.8 11.8-6.1 14-7.4 2.3-1.3 8.8-4.4 14.6-7s13.9-6.3 18-8.2c7.2-3.4 21.3-9 35-13.8 3.6-1.3 9-3.3 12-4.4 5.5-2.1 36.3-11.5 41-12.4 1.4-.3 6.6-1.7 11.5-3 8.5-2.4 38.7-8.6 59.4-12.2 5.2-.9 14.9-2.1 21.5-2.6 6.7-.5 16.8-1.6 22.6-2.4 15.1-2.1 59.7-3.5 110.4-3.5 24.1.1 44.1-.2 44.4-.5s-3.1-.5-7.6-.5c-8.4 0-15.1-2.1-15.2-4.7 0-1.6 2.9-1.6 13.4-.3 4.5.6 13.3 1.7 19.6 2.5 30.8 3.8 42.5 6 86 16.1 37.2 8.7 80.3 24.8 125 46.5 36.2 17.7 64.5 34.4 98.5 58.2 11.9 8.4 12.5 8.9 12.5 12.2 0 3.4-.1 3.5-3.8 3.5-2.6 0-4.5-.7-5.7-2-1.3-1.5-2.2-1.7-3.6-1-1 .6-5.2 1-9.3 1-4.2 0-7.6.3-7.6.8 0 .4 3.2 4 7 8.1 6.6 7 7 7.6 7 12-.1 3.8-.5 4.9-2.6 6.5-5 3.6-10.2 1.9-40.3-13-51.1-25.3-90.6-41.5-133.1-54.7-15.1-4.7-43.9-12.5-56.5-15.2-56.3-12.5-77.3-15.8-125.5-19.7-21.6-1.8-131.5-1.8-146 0-5.8.7-14.5 1.7-19.5 2.3-16.7 1.9-43.9 5.9-57 8.5-7.1 1.4-15.5 2.9-18.5 3.4-5.5.9-41.9 10-47.5 11.9-1.6.5-8.4 2.4-15 4.1-18.9 4.9-22.5 5.9-31.5 9.1-4.7 1.7-14.3 5.1-21.5 7.5-22.6 7.9-30.6 11.3-65.5 28.2-25.7 12.4-41.5 22.4-59.2 37.6-16.3 13.9-25 24.2-32.2 38.1-8 15.3-6 26.1 8.2 45.9 6.2 8.5 14.6 15.9 28.8 25.4 8.4 5.6 23 13.9 28.4 16.3 4.6 1.9 7 5 7 8.9 0 6.8-4.2 7.7-15.5 3z" fill="#3276D4" />
    <path d="m1419.5 758.1c-11.9-2.8-21.8-7.1-36.1-15.7-20-12-33.1-21.3-53.4-38-15.3-12.6-35.2-29.6-41-35-3.6-3.3-12.3-11.2-19.5-17.4-7.1-6.3-21-18.6-30.7-27.3-9.8-8.8-20.4-18-23.6-20.6-10.6-8.3-19.5-15.7-29.7-24.6-8.8-7.6-21.8-17.8-52.4-40.7-23-17.2-85.7-54.4-102.6-60.8-4.8-1.8-5.5-4.6-3.1-11.8 7.7-23.4 12.3-57.7 11.1-83.9-.6-14.7-1-17.2-5.1-38.3-1.5-7.4-2.6-14.6-2.5-16 .1-2.7-2.5-19.1-4.1-25.5-3.9-15.7-6.2-23-11.5-36-16.9-41.4-45.6-77.1-81.5-101.2-32.8-22-63.5-33-105.8-38-17.4-2-60.6-1.3-71.5 1.2-3.8.9-10.1 2.2-14 2.9-13.4 2.5-32.5 8.4-44 13.6-2.7 1.2-5.9 2.6-7 3-6.7 2.8-13.5 6.1-14 7-.3.6-1.3 1-2.1 1-2 0-22.8 12.7-31.9 19.5-7 5.2-19.6 15.8-29 24.4-19.5 17.8-40.8 47.3-53 73.5-12.3 26.2-21 60.3-22.2 86.4-.3 7.2-.9 13.2-1.3 13.2s-1.1 3.5-1.4 7.8c-1.8 23.6-1.8 25.8.4 41.9 2.7 20 2.5 22.4-1.5 23.7-7.1 2.2-40.8 15.8-49.7 20-5.3 2.5-10 4.6-10.3 4.6-.4 0-9.4 4.3-19.9 9.6-14.5 7.2-20.3 10.7-24.1 14.4s-6.4 5.2-11 6.5c-7.9 2.2-18 5.8-29 10.2-11.3 4.6-50.5 24.1-60.5 30.2-6 3.6-8.7 4.6-13.2 4.9-5.8.4-5.8.4-5.8-7.2 0-13.2 6.8-53.5 9.6-56.7.8-.8 1.4-2.2 1.4-3 0-.9.7-2.4 1.6-3.5 1.4-1.8 1.5-1.7 1.1 1.6-.3 1.9-.8 4.6-1.3 5.9-.5 1.7-.4 2.2.4 1.7.7-.4 1.2-1.5 1.2-2.4 0-1 1.1-3.3 2.4-5.2 1.2-1.9 2.9-5.3 3.6-7.5 1.2-3.8 7.3-16 17.8-36 5.3-9.9 33.2-56.7 39.2-65.5 2-3 5.7-8.4 8-12 42.8-63.9 110.6-140.3 158.1-178.2 15-11.9 44-31.9 50.9-35.1.8-.4 4.7-2.5 8.5-4.7 9.5-5.5 45.2-23 47-23 .7 0 1.6-.4 1.9-.9.3-.4 4.7-2.3 9.8-4 5.1-1.8 10.7-3.9 12.3-4.6 8.1-3.5 32.7-10.3 41.5-11.5 4.1-.6 12.2-2.2 18-3.6 32.6-7.8 39.5-8.4 94.5-8.7 47.9-.2 48-.2 67 2.6 29.2 4.3 38.7 5.7 42.8 6.2 2 .2 7.6 1.4 12.3 2.5 9 2.1 14.9 2.7 10.9 1-1.1-.4-4-1.4-6.5-2-14.3-4-15.1-5.3-1.2-2 4.6 1.1 10 2 12.2 2 12.1 0 70 22.4 110.5 42.8 10.4 5.3 21.3 10.9 24 12.5 2.8 1.7 11.3 6.7 19 11.2 19.9 11.7 30.1 18 37.5 23.5 3.6 2.6 7.9 5.5 9.5 6.4 1.7.9 5.3 3.3 8.1 5.4 2.8 2 9.7 7.1 15.5 11.2 10.1 7.3 18 13.6 33.8 26.8 4.2 3.5 10.5 8.7 14.1 11.6 14.9 12.1 38.8 34.6 57.5 54.2 11 11.5 23.5 24.5 27.7 29 6.8 7 7.8 8.5 7.8 11.7 0 3.7 6 15.1 11.9 22.6 1.6 2 4.6 6.8 6.7 10.6 2.1 3.9 6.2 10.7 9.1 15.3s7 11.6 8.9 15.5c2 4 4.4 8.3 5.4 9.7 2 2.9 7.9 13.8 16.5 30.5 3.4 6.6 7.9 15.2 10 19 8.5 15.5 32.5 64.9 32.5 66.9 0 .3 2.1 5 4.6 10.3 2.5 5.4 6.1 13.8 8.1 18.8 1.9 4.9 4.5 11.7 5.8 15 3.9 10.1 12.5 36.2 12.5 38 0 .9 1.3 5.6 3 10.3 7.4 21.5 11 44.5 11 69.8 0 24.2-2.4 35.2-10.6 47.9-5 7.8-10.3 12.5-18.4 16.4-7.2 3.5-8 3.6-19.5 3.8-8.8.2-14.1-.3-20-1.6z" fill="#2799EC" />
    <path d="m951.3 88.3c.4-.3 1-.3 1.4 0 .3.4 0 .7-.7.7s-1-.3-.7-.7z" fill="#01D8B6" />
    <path d="m945 87.5c0-.3.2-.5.5-.5s.5.2.5.5-.2.5-.5.5-.5-.2-.5-.5z" fill="#01D8B6" />
    <path d="m1191 1524.4c-23.9-3.3-43.4-7.5-59.3-12.8-20.1-6.7-32.5-13.2-38.7-20.2-3.1-3.6-3.2-3.8-2.5-10.8.7-7.9 2-9.6 6.9-9.6 1.7-.1 4.2-.7 5.6-1.5s4.2-1.4 6.4-1.5c3.4 0 3.7.2 2.5 1.6-1.9 2.3-2.2 7.9-.4 9.4 2.9 2.4 17.7 4.9 29.1 5 27.3 0 71.4-4.9 91.5-10.3 3-.8 9-2.2 13.4-3.2 12.7-2.8 44.8-13.8 58.5-20 6.9-3.2 13.9-6.2 15.6-6.9 1.7-.6 4.5-2.4 6.4-3.9 1.8-1.5 5.1-3.7 7.4-4.9 8.4-4.2 39-26.8 52.4-38.7 12.4-11.1 38-40.5 45.9-53 1.9-3.1 5-7.4 6.8-9.6 4.5-5.5 21.5-39.7 25.9-51.9 5-13.8 11.2-35.3 13.5-47.1 6-30.4 3.8-66.3-4.7-77.5-2.6-3.4-5.2-7.7-5.2-8.7 0-.3 2.7-.3 6-.1 4.9.4 6.9 1.1 11.5 4.4 19.5 13.8 28.5 17 37.8 13.5 3.9-1.5 10.2-1.4 11.6.2 2.2 2.7 6 14.6 8.7 27.7 2.8 13.1 2.9 14.3 2.9 44 0 29.6-.1 30.9-2.9 44.5-7.7 38-29.1 83.2-54.9 116.3-9.6 12.4-35.3 39.1-46.3 48.2-4.2 3.6-9.9 8.4-12.4 10.8-2.6 2.3-5.1 4.2-5.6 4.2-.6 0-2.5 1.3-4.4 3-1.9 1.6-3.8 2.9-4.3 3-.4 0-3.8 2.2-7.6 5-9.9 7.2-43.1 23.6-61.1 30.2-22.9 8.4-30.8 10.8-44.5 13.8-3.3.7-6.4 1.7-7 2.1-.5.4-6.2 1.5-12.5 2.4s-15.6 2.3-20.6 3.1c-12 1.9-56.7 1.8-71.4-.2z" fill="#31CAD9" />
    <path d="m338 1507c-11.2-.8-23.6-2.3-31-3.8-19.7-4.1-25.9-5.6-35.5-8.8-39.3-12.9-75-34.8-103.5-63.4-18.8-18.7-31.8-35.7-45.2-59-11.2-19.4-19.8-38.3-19.8-43.5 0-3.8 1.6-5.5 2.5-2.6.3 1.2 1.2 1.7 2.3 1.5 1.3-.3 3 1.8 6.6 8.2 8.3 14.4 23.4 33.4 31.9 40 2.1 1.6 6 4.9 8.6 7.4 4.5 4.3 14.8 12.4 21.8 17.3 1.8 1.2 6.1 4.2 9.5 6.7 12.5 9.1 25.5 16.3 42.3 23.7 24.5 10.7 45.6 18 63.5 21.8 40.6 8.6 50.5 10 71 9.9 15.9 0 33.8-1.9 38.8-4.2 4.1-1.8 4.1-1.9 2-3-2.1-.9-1.8-1.1 2.1-1.1 3.5-.1 7 1.3 18 6.9 7.5 3.9 15.1 8.4 16.9 10 2.8 2.5 3.2 3.5 3.2 7.8 0 8.3-3.6 11.3-21.4 17.7-5 1.8-13.6 4.2-19.1 5.5-5.5 1.2-12.9 2.9-16.5 3.8-7.3 1.8-31.2 2.4-49 1.2z" fill="#31CAD9" />
    <path d="m1086.4 1374.8c-4.4-4.3-6.6-7.3-7-9.5-.8-4.5 1.7-17.7 6.1-31.1 3-9.3 3.9-11.2 5.6-11.2 1.1 0 1.7.5 1.4 1-.4.6-.2 1.6.3 2.3.6.7.9 5.8.6 12.7-.9 22.5-.6 25 2.7 25 2.3 0 18.5-3.8 21.4-5 1.1-.5 9.7-2.3 19-4 9.4-1.7 20.2-3.8 24.1-4.6 3.8-.8 16.4-1.9 28-2.4 11.5-.6 25.5-1.3 31.2-1.6 7.4-.5 10.2-.4 10.2.5 0 .6-.4 1.1-1 1.1-.5 0-4.8 3.8-9.5 8.4-9.7 9.4-8 8.9-30.8 10.6-22.8 1.8-32 3-34.3 4.5-1.3.8-3.4 1.5-4.6 1.5-3.3 0-19 3.1-21 4.1-1 .5-5.3.9-9.5.9-4.3 0-10.3.7-13.3 1.5-10.3 2.8-12.4 2.3-19.6-4.7z" fill="#31CAD9" />
    <path d="m296.7 1342.7c-5.8-5.3-5.8-5.3-3.4-7.5 2.2-2.1 3.2-2.2 19-2.2 16.7 0 16.7 0 16.7 2.5s-.4 2.7-10.2 5c-1.5.4-3 1.5-3.3 2.6-.5 1.3-2 2-5.6 2.5-2.7.4-5.2 1.1-5.5 1.5-.9 1.5-1.7 1-7.7-4.4z" fill="#31CAD9" />
    <path d="m416 1340c0-1.3.7-2 2-2 3.3 0 3.4-2.4.5-11.7-25-80.8-106-170.6-178-197.3-14-5.2-14-5.2-34.2-4.8-18.4.4-20.3.3-20.3-1.2 0-3.2 4-5.3 14.2-7.6 14.9-3.4 42.7-4.9 63.3-3.6 22.5 1.5 48.9 7.3 52.3 11.5.5.7 3.8 7.3 7.3 14.7 18 38.6 47.1 79 83.1 115.2 14.7 14.8 14.4 14.3 19.9 29.8 4.4 12.3 10.9 41.3 10.9 48.7 0 6.1-.8 7.2-5.1 7.9-2.1.4-3.9 1-3.9 1.5s-2.7.9-6 .9c-5.3 0-6-.2-6-2z" fill="#31CAD9" />
    <path d="m1592.4 1315.9c-10.4-6.7-19.7-12.8-20.6-13.7-2.4-2-2.3-8.4.2-21.4 1.2-5.6 2.5-14.6 3.1-19.8 1.7-15.1 1.9-16 3.4-16 .8 0 1.7 1.5 2.1 3.7.7 3.5.8 5.2 1.2 13.8.2 4.1.2 4.1 10.5 9.3 5.6 2.9 11.3 5.2 12.5 5.2 2.6 0 4.6-3.4 4.4-7.5-.3-3.9-6.7-29.7-9.8-39.6-2.1-6.7-2.8-7.8-5.2-8.4-1.5-.3-3.5-1.4-4.4-2.2-1-.8-2.4-1.3-3.1-1-.8.3-2 0-2.6-.6-1.8-1.8-3.1 1-3.1 6.6 0 3.9-.3 4.7-1.9 4.7-1.7 0-1.9-1.3-2.4-17.7-.4-9.8-1-20.8-1.3-24.5-.7-6.8-.7-6.8 4.3-6.8s5 0 8.1 6.8c3.4 7.4 10 23.8 13.9 34.5 3.7 10.4 15.2 56.9 16.8 68.2 1.8 12.9 3 32.5 2.1 35.9-.6 2.3-1.1 2.6-5 2.6-3.8 0-6.5-1.4-23.2-12.1z" fill="#31CAD9" />
    <path d="m1686 1184.9c-39-34.7-61.1-51.5-91.7-70-8.8-5.3-17.7-11.4-19.7-13.6-2-2.1-5.5-7.3-7.9-11.5-2.3-4.3-4.7-7.8-5.3-7.8s-2.1-2.7-3.3-6.1c-1.3-3.3-4.5-10.8-7.2-16.6s-4.9-11.9-4.9-13.7c0-1.7-1.2-6.2-2.5-10.1-2.8-7.8-3.4-21-1.4-28.8 2.1-8.4 13.6-21.4 19.1-21.6.9-.1 2-.5 2.3-1.1s4.8-1 10.1-1c5.6 0 9.4.4 9.4 1s1.2 1 2.8 1c1.5 0 3.8.9 5.2 2s3.3 2 4.3 2c3.3 0 7.7 4.1 7.7 7.2 0 2.7 0 2.7-3.2.8-7.2-4.1-28.4-5.3-32.6-1.7-1 .7-3.8 2.6-6.5 4.1-8.6 4.9-12.6 14.2-10.8 25.3 1.5 9.6 6.6 20.4 14.1 30.1 11.3 14.6 21 22.5 48.5 39.2 6.6 4.1 13.4 8.4 15.1 9.7s3.5 2.3 3.9 2.3c1.6 0 18.9 11.3 25.2 16.4 3.4 2.8 8.3 6.4 10.8 8 2.6 1.6 8.8 6.1 13.9 10.1 5 4 10.2 7.6 11.5 8 2.1.6 2.3.5 1.8-1.4s-.2-2.1 1.6-1.5c1.2.3 2.3.7 2.4.8.1 0 1.3 4.7 2.8 10.4 2.5 10.2 4.4 24.8 4.5 35 0 5.2 0 5.2-3.2 5.1-2.8 0-5.6-2-16.8-12z" fill="#31CAD9" />
    <path d="m752.1 1184.5c-7.2-.9-14.9-2.6-20.5-4.5-10.1-3.5-22.5-9.7-23.3-11.5-.5-1.5 4.3-9.8 11-18.9 6.4-8.7 22.1-22.6 32.7-29 8.9-5.4 23.9-10.9 34-12.5 9.5-1.6 28.7-1.3 37.2.4 11 2.3 24.2 9 32.1 16.5 3.7 3.4 7 7.3 7.3 8.6.5 1.8-.8 4-6.3 10.4-6.6 7.8-22.4 21.7-28 24.8-16.8 8.9-30.2 14.2-39.3 15.4-11.8 1.6-25.3 1.7-36.9.3zm76.7-64.9c-.2-.1-1.3-1-2.5-2-2.3-1.9-2.3-1.9-2.3.1 0 1.5.7 2.1 2.5 2.1 1.4 0 2.5-.1 2.3-.2z" fill="#31CAD9" />
    <path d="m122.2 1153.3c-.4-1-.7-5-.7-8.8 0-7.1 0-7.1 5.4-13.2 7.1-8.2 22.3-18.4 34.6-23.3 3.3-1.3 6.7-2.9 7.6-3.7 2.2-1.8 18.9-8.3 21.5-8.3 1.2 0 2.7-.7 3.4-1.5s2.7-1.5 4.6-1.5c3.6 0 5.2-.6 16.2-5.6 4-1.9 7.9-3.4 8.6-3.4 2.4 0 9.4-2.8 11.3-4.5 1-.9 4-3 6.7-4.8 3.1-2 6.9-5.9 10.2-10.7 7.1-10.1 17.5-26.6 19.6-31.2.9-2.1 3.6-7 5.9-11 3.9-6.6 4.4-8.1 4.9-15.5.5-7.5.3-8.3-1.2-8.3-1 0-1.8-.5-1.8-1.1 0-.8 2-1 6.1-.7 8.5.6 9.1 1.6 8.3 13.7-.4 5.3-.1 17 .6 26.1 2 28.1 2.2 42.3.6 46.2-1.3 3-2.2 3.7-7.8 5.3-3.5 1-7.9 2.8-9.8 4-2.8 1.7-5.7 2.3-14.5 2.8-6 .4-12.8 1.2-15 1.8s-7.7 1.4-12.2 1.9c-7.4.7-14.9 2.4-22.8 5.1-1.6.6-4.1 1.3-5.5 1.6-2.9.6-21 8.1-22.5 9.3-3 2.4-12.6 7-14.7 7-3.9.1-9.2 3.3-14.1 8.6-2.6 2.8-4.7 5.5-4.7 6 0 1.1-7.5 9.1-11 11.8-1.4 1-3.7 3-5.1 4.3-2.6 2.4-2.8 2.4-6.4.9-4.9-2.1-5.8-2-5.2.4.6 2.5-.1 2.6-1.1.3z" fill="#31CAD9" />
    <path d="m1512.8 1138.5c-1.4-1.5-21.8-7.8-24.8-7.7-3.5.2-14.8-1.4-18.2-2.4-1.3-.4-1.8 0-1.8 1.5 0 1.7-.6 2.1-3.1 2.1-2.2 0-4.5-1.2-8-4.3-11-9.6-29.1-18.4-53.9-26.3-6.3-2-12.4-4-13.5-4.5-1.9-.9-4-1.5-18.2-5.4-9.6-2.6-17.7-6.6-20.9-10-3.4-3.7-3.9-5.7-5-21.1-.7-10.5-.1-13.4 2.8-13.4 1.4 0 1.8.5 1.4 1.5-.3.9 0 1.5.9 1.5 1.1 0 1.5 1.3 1.5 5.5s.7 7 2.9 11.3c5.9 11.6 12.6 15.1 36.8 19.7 7.6 1.5 19.2 4 25.8 5.7 16.7 4.2 45.1 9.8 49.5 9.8 2.3 0 5.3-1.1 8.3-2.9 8.4-5.4 10.9-14.4 8.3-29.7-3-17.3-9.6-31.9-21.4-47.3-10.9-14.2-17-19.6-27.8-24.8-9.4-4.5-10.4-4.8-19.7-5.1-9.4-.4-9.8-.5-9.5-2.5.6-4 4.2-4.9 16.9-4.2 20.1 1 33 5.3 50.8 17.2 15.5 10.4 31.2 25.9 41.1 40.8 13.9 21 25.5 49.2 28.5 69.1 2 13.6 2 15.1-.7 15.9-1.3.4-4.9 2.9-8 5.6-5.6 4.9-5.6 4.9-13.1 4.9-4 0-7.6-.2-7.9-.5z" fill="#31CAD9" />
    <path d="m1367.3 980.2c1.5-1.7 1.1-2.8-6.5-16.7-17.9-33.2-36.9-56.3-69.8-84.7-14.5-12.5-42.4-31-60-39.8-3-1.5-9.8-5-15-7.8-9.8-5.2-38.1-17.7-62-27.5-16.7-6.8-34.2-12.1-37-11.2-2 .6-2 .8-.5 3.1s1.5 2.4-1 2.4c-1.5 0-5.8-2.4-10.7-6.1-9.9-7.3-14.9-9.9-25.4-13.3-15-4.8-23.8-5.4-44.6-3-6 .7-7.1.1-4-2.2 1.6-1.3 1.5-1.5-.8-3.3-1.4-1.1-6.5-3-11.5-4.1-13.8-3.3-41.4-8.7-47.5-9.4-3-.4-6.8-1.1-8.5-1.6-1.6-.5-7.3-1.4-12.5-2s-12.9-1.7-17-2.5c-4.1-.7-10.6-1.6-14.5-2-3.8-.3-11.9-1.3-18-2.1-10.8-1.4-19-2.1-50.5-4.7-18.9-1.5-101.8-1.3-120 .2-6.9.6-18.8 1.5-26.5 2.1-27 1.9-60.6 6.9-92.3 13.6-9.2 1.9-20.3 4.2-24.7 5.1-9.4 1.9-11.9 3.5-9 5.8 1.9 1.3 1.6 1.4-3.1 1.5-2.8 0-7.1-.7-9.5-1.6-6.1-2.3-28.5-2.4-34.9-.2-2.5.9-6.1 1.9-8 2.2-3.7.7-20.1 8.7-26.5 13-2.2 1.5-7.5 6-11.7 10.1-6.2 6.1-8.3 7.5-10.8 7.5-3.2 0-3.2 0 .5-4.2 3.6-4.3 3.3-6-.8-4-5.9 3-17.6 8-21.2 9.2-2.2.7-4.4 1.6-4.9 2.1-.6.5-1.7.9-2.5.9-.9 0-5.2 2.1-9.6 4.6-4.4 2.6-11.4 6.6-15.5 9-4.2 2.4-8.4 5.2-9.4 6.3-1.2 1.3-3.2 2.1-5.1 2.1-1.7 0-3.5.4-4.1 1-.5.5-3.2 2.1-5.9 3.5-5 2.5-5 2.5-5.3.4-.2-1.3.8-3.3 2.6-5.3 1.6-1.7 3.2-3.9 3.5-4.9.4-.9 1.7-2.1 3-2.6 1.2-.5 2.9-1.6 3.6-2.5s1.8-1.6 2.3-1.6 2.8-1.3 5.2-2.9c2.3-1.6 6-3.3 8.1-3.7 2.4-.4 5.2-1.9 7-3.8 1.7-1.7 4.2-3.7 5.6-4.4 1.3-.7 5.2-3.3 8.4-5.8 3.3-2.4 6.3-4.4 6.8-4.4s4.8-2.6 9.5-5.8c13.5-9.1 24.9-16.4 32.1-20.5 12.7-7.2 48.7-24.6 58.1-28 5.2-1.9 14.9-5.6 21.5-8.1 26.1-10.1 62-18.7 96-23.1 6.6-.8 15.8-2.2 20.5-3 8-1.5 24.6-3.3 50.5-5.5 14-1.2 109-1.2 121 0 5 .5 14.9 1.6 22 2.4 7.2.9 18 2 24 2.5 6.1.6 16 1.9 22 3 6.1 1.2 21.6 3.7 34.5 5.7 12.9 1.9 33.6 6 46 9 12.4 2.9 30.2 7.2 39.5 9.5 47.9 11.5 108.8 32.4 144 49.4 8.3 4 16.1 7.6 17.5 8s6.3 2.8 11 5.4c4.7 2.5 13 6.7 18.5 9.2 10.8 5 18.9 9.7 25.1 14.5 2.1 1.7 7.7 5.3 12.3 8 17.4 10.2 60.4 49.6 76.9 70.4 16.8 21.2 21.7 28 25.5 35.6 1.9 3.8 4.2 7.6 5.1 8.3.9.8 1.6 1.9 1.6 2.6 0 .8.4 1.5.9 1.7s3.2 5.1 6 11c4.4 9 5.2 11.4 4.9 15.4-.3 4.1-.7 5-3.3 6.6-1.6 1-3.7 2-4.5 2.3s-3.8 1.7-6.5 3c-2.8 1.4-6.6 2.5-8.4 2.5-3.2 0-3.3-.1-1.8-1.8z" fill="#31CAD9" />
    <path d="m302 795.6c-4.2-1.7-5.6-2.7-5.8-4.5-.3-1.8 0-2.2 1.1-1.8.9.3 2.1-.1 2.8-.9 1-1.2.7-2-1.6-4.4-2.9-3-2.9-3 1.1-3 2.2 0 4.4.4 5 .9.5.5 3.7 2.3 7.2 4.1 6 3 6.2 3.3 6.2 6.9 0 3.2-.4 4-2.2 4.5-4 1-8.1.5-13.8-1.8z" fill="#31CAD9" />
    <path d="m1104.5 650c-.3-.5-1.5-1-2.7-1-1.1 0-4.7-1.2-7.9-2.6-4.8-2.2-5.9-3.1-5.9-5 0-1.3.1-2.4.3-2.4.1 0 1.7.4 3.6 1 5.4 1.5 10.4-3.3 6.9-6.8-.9-.9-.5-1.2 1.8-1.2 3 0 6.4 2.5 6.4 4.8 0 .6 1.1 1.9 2.5 2.8s2.5 2.3 2.5 3c0 .8.5 1.4 1 1.4.6 0 1 1.6 1 3.5 0 3.5 0 3.5-4.4 3.5-2.5 0-4.8-.4-5.1-1z" fill="#31CAD9" />
    <path d="m532 394.3c0-6.2.9-9.3 2.6-9.3 1.1 0 1.4 1.7 1.4 7 0 6.3-.2 7-2 7-1.7 0-2-.7-2-4.7z" fill="#31CAD9" />
    <path d="m534.2 372c.3-7.9.6-9.2 2.7-11.2 2.4-2.3 2.4-2.3 1.7.2-.3 1.4-.6 6.4-.6 11.3 0 8.2-.1 8.7-2.1 8.7s-2.1-.4-1.7-9z" fill="#31CAD9" />
    <path d="m237.294 207.161v32.725h23.069l53.784 110.809h36.937v-32.53h-14.321l-53.85-111.004z" fill="#2A9BEC" stroke="#2799EC" stroke-width="5.81" transform="matrix(1.97935 .213041 -.18861 1.75236 283.206 -232.604)" />
    <path d="m253.823 265.24 19.245 39.644-20.895 45.535h-38.581z" fill="#2A9BEC" stroke="#2799EC" stroke-width="5.81" transform="matrix(1.97935 .213041 -.18861 1.75236 283.206 -232.604)" />
  </g>
  <path d="m541 390s289.947 43.194 488.9-43.4c1.52-.661 3.95 36.493-7.46 74.584-11.13 37.171-27.204 76.045-42.35 82.762-109.451-51.084-272.197-70.232-416.089-45.946-13.67-19.69-21.009-44.053-23.001-68z" fill="#164A6A" fill-opacity=".15" />
  <path d="m1098.9 1497.7c-8.3-5.6-10.9-9.4-10.9-16.1 0-6.1 1.2-7.6 5.9-7.6 3.3 0 3.4.1 1.5 1.5-1 .8-1.6 1.5-1.3 1.5.4 0 .3 1.8-.1 4.1-.7 3.7-.5 4.5 2.2 7.5 1.6 1.8 4.6 4.3 6.6 5.5 6.8 4 10.2 6.4 10.2 7.2 0 .4-1.7.7-3.8.7-2.8 0-5.5-1.1-10.3-4.3z" fill="#59F4D3" fill-rule="nonzero" />
  <path d="m1080.3 1381.5c-3.6-3.6-3.6-3.6-2.9-10.3.3-3.7.9-7.7 1.2-8.9.9-3.2 3.9-3 4 .3.1 1.6 2.2 4.5 5.5 8 7.4 7.6 7.8 7.7 14.8 5.9 3.2-.8 8.7-1.5 12.1-1.5 5.8 0 6.1.1 5.8 2.3-.2 1.8-1.1 2.3-4.8 2.8-2.5.4-8.1 1.6-12.4 2.8-4.4 1.1-10.6 2.1-13.9 2.1-5.4 0-6.2-.3-9.4-3.5z" fill="#59F4D3" fill-rule="nonzero" />
  <path d="m525 1377.1c-6.1-9.6-15-35.1-15-43.2 0-3.9 0-3.9 4.1-3.9 3.3 0 5.6 1 11.3 4.8 3.9 2.6 8.7 5.4 10.6 6.3s6.1 3.2 9.3 5.3c5.7 3.6 5.7 3.7 5.7 8.5 0 3.1-.5 5.3-1.5 6.1-.8.7-1.9 2.7-2.4 4.6-.5 1.8-2.9 6.2-5.3 9.8-4.3 6.5-4.3 6.6-8.9 6.6-4.5 0-4.8-.2-7.9-4.9z" fill="#59F4D3" fill-rule="nonzero" />
  <path d="m386.5 1361.9c-43.9-2.7-63.9-4.7-70.5-7.1-3-1.1-6.3-2.1-7.3-2.2-.9-.1-3.3-1.7-5.2-3.6-3.3-3.2-3.4-3.5-1.8-5.2.9-1 2.8-1.8 4.2-1.8 4.9 0 6.1-.3 6.6-2.1.3-.9 1.8-2 3.3-2.4 8.3-2 10.2-2.7 9.6-3.6-1.1-1.8 39.9-.1 72.6 3 16.4 1.6 27.1 2 26.4 1-.5-.9.8-1.3 3.8-1 .9.1 1.9-.3 2.3-.9.3-.6 1.1-.8 1.6-.5.5.4 1.2-.7 1.5-2.4.4-2 1.2-3.1 2.4-3.1 2 0 3 5.2 3 16.2 0 8.7-2.1 13.5-6.6 15.4-3.7 1.5-24.5 1.7-45.9.3z" fill="#59F4D3" fill-rule="nonzero" />
  <path d="m1531.9 1169.8c-1.4-1.9-1.8-2-5.5-.7-6.5 2.2-18.1 1.8-23.4-.9-5.6-2.8-13.3-7.5-20.5-12.6-3.5-2.5-6.7-4-9-4.1-2.1-.1-4.6-1.2-5.9-2.4-2.2-2.1-2.3-2.4-.9-5.2 1.5-2.9 1.4-3.2-1.6-6.9-1.7-2.1-3.1-4.3-3.1-4.8s-.9-1.7-2-2.7-2-3-2-4.4c0-2.5 0-2.5 3.7 1 2.1 1.8 3 2.4 2 1.2-1-1.1-1.4-2.3-.9-2.7.9-.5 6.9-.1 11.2.9 6.6 1.5 12 2.1 13.1 1.5 1.3-.9 10 1.4 22.2 5.9 11.9 4.4 14.6 4.2 21.5-1.8 3.1-2.7 6.7-5.2 8-5.6 1.5-.4 2.1-1.2 1.8-2.1s.1-1.4 1.3-1.4c1.3 0 2 1 2.5 3.8 2 12-.7 27.6-6.5 37.9-1.6 2.9-2.9 6-2.9 6.8 0 2.1-1.2 1.8-3.1-.7z" fill="#59F4D3" fill-rule="nonzero" />
  <path d="m140 1144c.5-1 2.5-3.9 4.5-6.4 1.9-2.5 3.5-5 3.5-5.4s2.5-3.2 5.4-6.3c5.2-5.5 8.1-7 15.4-8.3 2.8-.5 3.2-.3 3.2 1.7-.1 1.5-2 3.6-6.5 7-3.6 2.6-6.5 5.3-6.5 6-.1.6-1.9 2.6-4.2 4.2-2.3 1.7-5.8 4.2-7.8 5.6-1.9 1.4-4.6 2.8-5.8 3.1-1.8.5-2 .3-1.2-1.2z" fill="#59F4D3" fill-rule="nonzero" />
  <path d="m1461 1124.5c0-.3.2-.5.5-.5s.5.2.5.5-.2.5-.5.5-.5-.2-.5-.5z" fill="#59F4D3" fill-rule="nonzero" />
  <path d="m1570.6 1102c-3.6-1.7-4.1-2.4-6.7-10.1-2.8-8.2-4.8-18.9-3.5-18.9.3 0 1.3 1.5 2.1 3.3.8 1.7 1.3 2.4 1 1.5-1.1-4.4 1.4-1 5.4 7.1 2.7 5.5 6.3 10.8 9.4 14 4.9 5.1 4.9 5.1.6 5-2.4 0-6.2-.9-8.3-1.9z" fill="#59F4D3" fill-rule="nonzero" />
  <path d="m1370.2 1093.5c-17.3-3.6-20.5-5.1-24.1-10.9-3.9-6.2-3.8-26.6 0-27.4 1.9-.4 2.9 2.5 2.9 8.8.1 7 1.5 11.6 4.6 14.8 3 3.2 11.7 7.2 20.7 9.7 2.8.8 7.7 2.1 10.7 2.9 6.2 1.7 10 3.5 10 4.8 0 1.6-8.6.6-24.8-2.7z" fill="#59F4D3" fill-rule="nonzero" />
  <path d="m268 1092.6c0-.9.5-1.6 1.1-1.6s2.4-.9 3.9-2c1.6-1.1 5.9-2.9 9.7-4.1 3.7-1.1 7.4-2.8 8.1-3.7 1-1.3 1.2-.9 1.2 2.9 0 3.6-.5 5.1-2.6 7-2.3 2.1-3.6 2.4-12 2.7-8.1.3-9.4.2-9.4-1.2z" fill="#59F4D3" fill-rule="nonzero" />
  <path d="m292.3 1075.2c-.1-1.5-.4-4.2-.6-5.9-.3-1.8 0-3.3.4-3.3.5 0 .9-.7.9-1.5s.6-1.5 1.4-1.5c1.7 0 3 7.8 2.1 12-.9 3.9-3.9 4.1-4.2.2z" fill="#59F4D3" fill-rule="nonzero" />
  <path d="m1542.6 1043.3c-1.5-3.2-5.7-10.1-9.2-15.4-6.6-10.1-28.4-37.9-32.4-41.4-1.2-1.1-4.7-5.7-7.7-10.2-2.9-4.5-5.8-8.5-6.3-8.8-1.6-1-1.2-7.1.5-8.5 2-1.6 28.4-.6 43 1.7 19.8 3 44.3 12.8 62.3 24.7 3.4 2.3 4.2 3.4 4.2 5.9 0 2.4-.3 2.8-1.2 1.9-.7-.7-2.1-1.2-3.2-1.2-1.2 0-3.2-.9-4.6-2s-3.7-2-5.2-2c-1.6 0-2.8-.4-2.8-1s-2.8-1-6.4-1-6.8.5-7.1 1c-.3.6-1.2 1-2 1-2.2 0-10.3 5.8-12.9 9.3-5 6.6-6.8 11.5-7.3 19.5-.5 6.8-.1 8.9 2.5 16.9 3.7 10.9 3.9 15.3.8 15.3-1.7 0-2.9-1.4-5-5.7z" fill="#59F4D3" fill-rule="nonzero" />
  <path d="m272 978.3c-12.5-1.2-12.1-1-11.8-5.6.3-4.1.3-4.1 7.8-6.8 8.9-3.2 20.2-5.9 24.8-5.9 3.2 0 3.2 0 3.2 7.6 0 11.2-.2 11.4-11.3 11.2-5.1 0-10.8-.3-12.7-.5z" fill="#59F4D3" fill-rule="nonzero" />
  <path d="m1384 972.7c0-.7 1-1.7 2.2-2.2 1.3-.6 2.4-1.8 2.6-2.8.4-1.9-9.4-23-10.9-23.5-.5-.2-.9-.9-.9-1.7 0-.7-.7-1.8-1.6-2.6-.9-.7-3.2-4.5-5.1-8.3-3.8-7.6-8.7-14.4-25.5-35.6-16.5-20.8-59.5-60.2-76.9-70.4-4.6-2.7-10.2-6.3-12.3-8-6.2-4.8-14.3-9.5-25.1-14.5-5.5-2.5-13.8-6.7-18.5-9.2-4.7-2.6-9.6-5-11-5.4s-9.2-4-17.5-8c-35.2-17-96.1-37.9-144-49.4-9.3-2.3-27.1-6.6-39.5-9.5-12.4-3-33.1-7.1-46-9-12.9-2-28.4-4.5-34.5-5.7-6-1.1-15.9-2.4-22-3-6-.5-16.8-1.6-24-2.5-7.1-.8-17-1.9-22-2.4-12-1.2-101-1.2-115 0-25.9 2.2-42.5 4-50.5 5.5-4.7.8-13.9 2.2-20.5 3-34 4.4-69.9 13-96 23.1-6.6 2.5-16.3 6.2-21.5 8.1-9.4 3.4-45.4 20.8-58.1 28-7.2 4.1-18.6 11.4-32.1 20.5-4.7 3.2-9 5.8-9.5 5.8s-3.5 2-6.8 4.4c-3.2 2.5-7.1 5.1-8.4 5.8-1.4.7-3.9 2.7-5.6 4.4-1.8 1.9-4.6 3.4-7 3.8-2.1.4-5.8 2.1-8.1 3.7-2.4 1.6-4.7 2.9-5.2 2.9s-1.6.7-2.3 1.6-2.4 2-3.6 2.5c-1.3.5-2.7 1.9-3.2 3.2s-3.1 4.3-5.8 6.5c-4.8 4.2-4.8 4.2-5.1.2-.3-3.7.6-5.2 11.3-20.1 15-20.7 23.9-31.3 40.5-47.7 17.6-17.5 32.8-29.7 52.5-42.2 34.7-21.9 70.2-36.8 116-48.5 47.3-12.1 84-17.6 133-19.8 36.3-1.7 110.2-.7 128 1.6 6.6.9 17.5 2.1 24.3 2.7 11.9 1 35.7 4 47.2 6 23.8 4 66.1 12.7 78 15.9 8 2.1 22.6 6 32.5 8.6 67 17.3 128.3 41.1 193 74.9 39.5 20.6 48.3 25.7 71.1 41.3 18 12.3 24 17 37.9 29.8 34 31.3 52.3 53.4 77.5 93.5 9.5 15.1 18.2 33.9 17.8 38.2-.3 3.3-.3 3.3-5.8 3.2-3-.1-9-.5-13.2-.9-8.2-.8-27.5 1.4-35.2 4.1-4.9 1.8-9.6 1.8-9.6.1z" fill="#59F4D3" fill-rule="nonzero" />
  <path d="m1438.4 889.3c-.6-.4-2.4-2.8-3.9-5.2-1.5-2.5-6-8.6-9.9-13.5-3.9-5-8.3-10.7-9.7-12.6-1.5-1.9-5.3-6.4-8.6-10s-8.3-9.2-11-12.5c-15.1-18.3-144.7-147.5-173.3-173-2.5-2.1-9.3-8.4-15.1-13.8-14.7-13.5-53.3-43.9-78.3-61.4-48.8-34.3-77.9-50.9-127.6-72.8-23.4-10.3-22.5-9.7-22.8-12.4-.3-1.8 0-2.2 1.1-1.8 5.2 2 27.7-34.7 38.2-62.3 5.3-13.7 9.7-30.3 10.6-39.5.4-4.4 1.2-11.6 1.8-16s.9-18.2.8-30.7c-.03-2.131-.06-4.212-.08-6.2-.08-9.58.01-17.003.18-17.5.4-1.2 3.2-1.5 3.2-.4 0 .4 1.1 6.6 2.5 13.7 1.4 7.2 3 15.4 3.5 18.1 1.7 9.2 2.3 36.9 1.1 50.3-3 31-5 42.5-10.6 59-1.4 4.3-1.4 4.3 2.3 5.8 2 .8 4.4 1.8 5.2 2.2.8.5 10.3 5.5 21 11.2 24.3 12.9 60.3 35.2 77.1 47.8 30.6 22.9 43.6 33.1 52.4 40.7 10.2 8.9 19.1 16.3 29.7 24.6 3.2 2.6 13.8 11.8 23.6 20.6 9.7 8.7 23.6 21 30.7 27.3 7.2 6.2 15.9 14.1 19.5 17.4 9.2 8.6 38.3 33.1 54.9 46.1 19 15.1 47.5 32.8 61.1 38 11.8 4.6 23.8 6.8 33.1 6.3 17-1 30.9-11.9 38.6-30.3 9-21.3 6.4-66.4-5.7-101.7-1.7-4.7-3-9.4-3-10.3 0-5-18-53.9-26.6-72.1-2.4-5.2-4.4-9.7-4.4-10 0-2-24-51.4-32.5-66.9-2.1-3.8-6.6-12.4-10-19-8.6-16.7-14.5-27.6-16.5-30.5-1-1.4-3.2-5.4-5-9s-6-11-9.4-16.5c-3.5-5.5-8-13-10.2-16.7-2.1-3.7-6.1-10.1-8.9-14.3-10.6-16.2-14.6-22.7-14.3-23.6.2-.6 1.3-.1 2.5 1.1 3.7 3.4 3.9 2.2.3-1.5-3-3-3.1-3.5-1.4-3.5 1.1 0 2.9.8 4 1.9 1.1 1 3 2.3 4.2 3 1.2.6 5.4 5 9.4 9.8 22.1 26.1 26.7 31.6 33.3 40.4 11.4 15 37.7 54.8 46.7 70.8 11.9 21 17.9 32.4 25.5 48.1 12.9 26.5 13.8 28.6 21.9 48.5 7.1 17.5 7.5 18.1 13 23 9.8 8.6 23.7 22.7 29.5 30 9.2 11.6 25.2 36.8 28.8 45.5 1.3 3 3.4 7.3 4.7 9.6 5.9 10.1 14.7 42.3 18 65.9 1.2 8.2 1.5 16.3 1.1 32-.4 19.8-.7 21.8-4 35.5-4.2 17.4-7.7 26.2-14.9 37.7-7.9 12.8-26.4 30.9-36.7 36-2.5 1.2-6.8 3.8-9.5 5.8-3.2 2.3-5.9 3.5-8.1 3.5-1.8 0-6.1.8-9.6 1.9-3.5 1-9.3 2.6-12.9 3.6-3.6.9-8.5 2.4-11 3.2-4.9 1.7-27.8 2.9-29.6 1.6z" fill="#59F4D3" fill-rule="nonzero" />
  <path d="m340.5 807.6c-4.9-1.3-14.1-3.8-20.2-5.7-9.9-2.9-11.3-3.6-11.3-5.5 0-1.2.6-2.2 1.3-2.1 6.4.2 6.1-1.5-1-5.1-3.2-1.7-8.6-4.5-12-6.4-3.5-1.8-10-5.3-14.5-7.7-20.2-10.6-37.8-24.3-46-35.7-14.8-20.6-17.1-34.9-8.2-51.9 7.2-13.9 15.9-24.2 32.2-38.1 17.7-15.2 33.5-25.2 59.2-37.6 34.9-16.9 42.9-20.3 65.5-28.2 7.2-2.4 16.8-5.8 21.5-7.5 9-3.2 12.6-4.2 31.5-9.1 6.6-1.7 13.4-3.6 15-4.1 5.6-1.9 42-11 47.5-11.9 3-.5 11.4-2 18.5-3.4 13.1-2.6 40.3-6.6 57-8.5 5-.6 13.7-1.6 19.5-2.3 14.6-1.8 130.3-1.8 152 0 42.3 3.5 63.6 6.5 101 14.4 26.6 5.6 34.4 7.4 52 12.2 57.6 15.6 100 32.2 167.4 65.7 18.7 9.3 35 16.9 36.2 16.9 1.3 0 2.6.5 2.9 1 .3.6 1.4 1 2.3.9 1.1 0 1.2-.3.5-.6-.7-.2-1.3-1.1-1.3-1.8s-1.1-2-2.5-2.9-2.5-2.2-2.5-2.9c0-.6-4.1-5.5-9-10.7s-9-10.3-9-11.2-.4-2-1-2.3c-.5-.3-1-1.2-1-1.9 0-1 2.3-1.4 8.8-1.5 9-.2 14-2 12.5-4.4-.9-1.5 4.3 1.8 7.4 4.6 1.3 1.1 2.5 1.8 2.9 1.5.3-.3-2.2-2.5-5.5-4.8-3.4-2.4-6.1-4.4-6.1-4.6s1.1-.4 2.4-.4c1.4 0 4.5 1.6 7 3.5 2.6 1.9 5.2 3.5 5.9 3.5 1.5 0 25.4 18 37.8 28.5 25.8 21.9 45.2 39.8 82.2 75.8 26.2 25.6 28.7 28.4 28.7 31.4 0 3.1-.2 3.3-3.2 3.3-1.8 0-6-1.5-9.3-3.4-18.7-10.4-28.2-15.4-39-20.3-6.6-3-17.6-8.1-24.5-11.3-15.1-7-18.4-8.4-51-20.9-43-16.6-63.8-23.1-120.5-37.6-32.6-8.4-87.5-18.9-112.5-21.5-5.8-.6-13-1.5-16-2-3-.6-14.3-1.7-25-2.5-10.7-.9-23.5-1.9-28.5-2.3-15.1-1.3-112.2.1-113.7 1.6-.6.6-3 1.2-5.3 1.2-2.2 0-7.1.7-11 1.6-3.9.8-14.7 1.8-24.3 2.1-9.5.3-17.5 1-17.8 1.4-.3.5-2.2.9-4.1.9-4.9 0-14.4 1.7-22.3 4.1-3.6 1.1-7.8 1.9-9.5 1.9-3.7 0-16.3 2.4-23 4.4-10.2 3-16.1 4.5-20.5 5-2.5.4-8.3 1.8-13 3.2-11.7 3.4-27.1 8.4-29.5 9.4-1.1.5-4.7 1.6-8 2.6-3.3.9-6.9 2.3-8.1 2.9-1.1.7-3.6 1.8-5.5 2.3-6.1 1.8-17.2 6.1-23.9 9.3-8.9 4.1-24 11.6-27 13.3-1.4.8-4 2-5.8 2.6-1.8.7-5.9 3.6-9.1 6.4s-8.9 6.8-12.7 8.9c-10 5.5-12.2 7.2-28.7 22.9-13.7 13-22 22.1-28.8 31.7-8.9 12.6-13.9 20.3-16.1 25.1-1.3 3-4.1 8.1-6.2 11.3-3.7 5.7-3.7 5.7-9.4 5.6-3.1 0-9.7-1.1-14.7-2.3z" fill="#59F4D3" fill-rule="nonzero" />
  <path d="m428 492.4c4.6-4.6 19.2-12.8 38.5-21.5 5-2.3 12.8-5.9 17.4-8.1 10.7-5 45.4-18.8 47.3-18.8.8 0 2.2-.6 3.2-1.3 1.6-1.2 1.6-2.1-.5-17.2-2.3-16.9-2.3-16.2.8-52.7.3-3.1 1.1-6.2 1.8-6.8 1.1-.9 1.5-.1 1.9 4.2.3 2.9 1.3 11.4 2.1 18.8s2.1 16.4 2.9 20c3.3 16.1 16.2 48 19.2 48 .8 0 1.4.9 1.4 1.9 0 2 .4 1.9-16.5 5.3-9.4 1.9-18 4-19 4.8-.5.4-3.5 1.1-6.5 1.5-9.4 1.2-20.2 4.4-24.2 7.1-3.2 2.3-5.3 2.7-14.3 3.4-5.8.4-11.1 1.2-11.8 1.8-3.4 2.8-8.8 5-13.9 5.6-3.1.4-10.7 2.5-16.8 4.7-6.2 2.1-12.7 3.9-14.3 3.9-3.1 0-3.1 0 1.3-4.6z" fill="#59F4D3" fill-rule="nonzero" />
  <path d="m1196.5 1550c-12.7-1.1-21.9-2.4-41-5.9-16.4-3-38.5-10.5-55-18.6-22.7-11.2-35.7-22.6-40.5-35.6-1.9-4.9-2.2-7.1-1.6-12.4.8-8.4 1.7-10.5 7-17.3 4.8-6.3 6.3-7.4 25.3-20 7.2-4.8 17-12 21.8-16 7.4-6.3 9.1-8.4 12-14.5 1.9-3.9 3.2-7.3 3-7.5-.1-.2-5.4.2-11.6.8-6.3.6-15.8 1.4-21.2 1.7-22.2 1.3-37.9-6.9-42.6-22.2-1.2-3.7-2.1-8-2.1-9.6 0-2.8-.1-2.9-4.7-2.3-2.7.3-5.7.9-6.8 1.4s-4.5 1.4-7.5 2.1c-3 .6-6.4 1.6-7.5 2.2s-5.6 1.6-10 2.3-17.8 3.3-29.9 5.8c-52 11-80.7 13.6-144.9 13.5-43.1-.1-66.2-.9-83.2-2.8-4.9-.6-11-1.2-13.5-1.5-17.3-1.7-70.3-11.2-94-16.7-2.5-.6-6.3-1.5-8.5-2-8-1.8-34.3-9.1-45.1-12.5-6.1-1.9-11.7-3.4-12.5-3.4-.9 0-2.3 2.6-3.8 6.9-6 17.7-21.3 37.7-33.3 43.5-12.4 6-26.3 2.2-36-9.9-10-12.4-22.9-42.4-26.9-62.5-.5-2.5-1.4-6.5-2-9-.5-2.5-1.3-7.1-1.6-10.3-.5-5.4-.8-6-4.3-8.2-2.1-1.3-4.1-2.9-4.5-3.5-.3-.5-2-1-3.7-1-2.3 0-2.9.4-2.4 1.6.9 2.4 2.5 17.6 3.4 32.3.7 11.7.6 14.3-1 20.4-1.8 6.7-4.5 12.7-7 15.7-4.5 5.3-16.4 12-21.4 12-1.7 0-5.6.5-8.7 1.1-4.1.9-10.4.9-24.2 0-10.3-.6-19.1-.8-19.6-.5-1.5.9 4.7 9 15.1 19.8 9.9 10.2 19.3 17.4 42.7 32.7 16.2 10.6 21.5 15.5 25.5 23.7 2.7 5.5 3.4 8 3.6 14.8.5 9.5-.9 13-8.4 21.3-14.2 15.7-45.3 27.2-84.9 31.3-11.6 1.2-52.6.5-60-1-2.7-.6-9.7-1.8-15.5-2.7s-12.7-2.3-15.5-3c-2.7-.8-8.5-2.3-12.7-3.4-14.9-4-39.4-13.5-53.8-20.9-39.6-20.2-74.7-50.6-105.5-91.2-21-27.6-40.9-66.5-49.6-96.5-11.6-39.8-15.5-68.4-14.5-105.1.3-11.1.9-22.1 1.5-24.5.5-2.4 1.5-8.4 2.1-13.4 2.4-18.6 9.7-51.3 12.1-54 .5-.5.9-1.7.9-2.7s.4-2.6.9-3.6c.5-.9 2.6-5.7 4.6-10.7 6.3-15.1 18.3-35.7 28.8-49.2 12.3-16 35.2-37.4 50.9-47.8 12.2-8.1 41.1-21.5 46.5-21.5 5.9 0 8.9-2.1 17.5-11.9 17.2-19.5 41-31.3 75.2-37 9.9-1.6 9.9-1.6 12.9-10.6 1.6-5 3.8-11.2 4.8-14 1-2.7 3.5-9.5 5.5-15 4.2-11.5 7.4-18.7 18.6-41.2 4.5-9.2 7.8-16.9 7.5-17.8-.4-.9-1.9-1.5-3.8-1.5-3.1 0-8-1.3-27.4-7.2-27.3-8.3-59.5-24.1-79.9-39.3-16.4-12.1-37.4-34.4-46.3-49.1-12.9-21.3-16.7-37.4-12.4-53.1 7-26.2 38.6-63.1 81.7-95.2 7.6-5.7 16.4-12.3 19.4-14.6 3-2.2 7-5 8.7-6 3-1.8 3.3-2.4 3.5-7.5.1-3 .1-7.7-.1-10.5-.3-5.7 2.6-36.2 3.9-41.5.5-1.9 2.3-10 4-18 1.8-8 3.5-15.8 4-17.5.5-1.6 1.4-5 2-7.5.7-2.5 2-7 3-10 .9-3 2.3-7.5 3-10 2.4-8.6 3.4-11.5 4.2-12.5.4-.5.8-1.5.8-2.3 0-5 21.9-54.1 33.7-75.7 16.9-30.8 39.1-64.4 55.7-84.5 22.9-27.6 30.8-36.4 49-55 25.3-25.9 51-48 77.8-66.8 1.8-1.3 7.1-5 11.7-8.3 8.4-5.9 26.6-17.4 35.1-22.1 2.5-1.4 7.2-4.1 10.5-6 17.9-10.6 57.3-28.1 76-33.8 2.2-.7 4.9-1.6 6-2.1 5.1-2.1 18.2-5.9 20.3-5.9 1.3 0 3.3-.5 4.5-1.2 3.2-1.7 13.8-4.2 27.5-6.5 1.8-.3 3.5-.9 3.8-1.4s3-.9 6.1-.9c3.2 0 6.3-.6 7.2-1.3 2.8-2.3 35-6.4 57.6-7.3 6.6-.3 12.9-1 14-1.5 1.3-.6 10.6-.8 25-.4 35.5.9 40.7 1.1 44.7 1.9 2.1.5 6.4.9 9.5 1 6.4.2 22 2.1 29.8 3.6 2.8.5 8.6 1.4 13 2.1s8.5 1.5 9 1.9c.6.4 3 1 5.5 1.3 4.2.5 18.4 3.4 27.5 5.6 2.2.5 6.9 1.6 10.5 2.4 22 5 64.8 19.5 89.4 30.2 47.6 20.7 74.5 35.5 123.6 68.1 60.7 40.2 97.6 71.4 151.9 128.4 61.4 64.5 100.3 119.4 138 194.7 9.1 18.2 22 49 24.2 57.8 1 4 2.4 5.6 11.3 13.4 29.3 25.5 49.5 54.3 66.5 94.9 5 12 10.9 31 13.1 42.7.7 3.3 1.6 7 2.1 8.3s.9 4.4.9 7c0 2.7.4 5.2 1 5.8 2.1 2.1 3.8 46.9 2.1 57.4-5 31.1-5.4 33.1-9.6 43.9-7.3 19.1-17.2 34.7-32 49.9-10.6 11-23.3 19.8-41 28.3-13.3 6.5-19.7 8.6-43 14.9-8.8 2.4-16.1 4.4-16.3 4.5-.2.2 1.3 3.5 3.3 7.3 4 8 1.6 7.4 22.5 5.1 26.7-2.9 56.6.7 80 9.6 41 15.7 73.5 41.3 104.4 82.4 20.6 27.5 40.8 68.3 49.6 100.1.6 2.5 1.6 5.5 2.1 6.8s.9 3.6.9 5.2.5 3.2 1 3.5c.6.3 1 1.9 1 3.6 0 1.6.4 3.7.9 4.7.8 1.5 1.6 5.8 5.2 26.9.7 4.4 1 12.1.7 20.5-.7 16.3-2.8 22.9-9.5 29.5-5.8 5.8-9.6 7.3-18.7 7.3-6.7 0-8.3-.4-14.8-3.8-8.4-4.3-19.3-12.5-46.3-34.6-12.6-10.4-19.7-15.6-21.3-15.6-1.9 0-2.2.4-1.7 2.1.4 1.2 1.5 5 2.5 8.5s2.1 6.7 2.4 7.2 1.2 3.4 2 6.3c.8 3 2.9 10.1 4.6 15.9 3.4 11.5 6.2 23.9 8.5 37 .8 4.7 2 11 2.5 14s1.7 15.6 2.6 28c2.4 33.8.5 45.7-9 56.7-13 14.9-33.5 12-66.9-9.6-7-4.4-13.1-8.1-13.6-8.1s-1.2 1.2-1.6 2.8c-1.2 4.7-8.1 18.8-15.1 30.4-25.5 42.7-59.8 81.7-96.6 109.6-32 24.2-54.1 36.4-91.8 50.4-7.4 2.7-13.9 5.4-14.5 5.9-.5.5-1.8.9-3 .9-1.1 0-4.9.9-8.5 2.1-3.6 1.1-8.3 2.4-10.5 2.9-2.2.4-5.3 1.3-7 1.8-6.9 2.4-13 3.5-33.8 6.3-4.8.6-10.6 1.3-13 1.5-8.2.9-57.3 1.1-66.2.4zm62.9-28.4c5-.8 14.3-2.2 20.6-3.1s12-2 12.5-2.4c.6-.4 3.7-1.4 7-2.1 13.7-3 21.6-5.4 44.5-13.8 18-6.6 51.2-23 61.1-30.2 3.8-2.8 7.2-5 7.6-5 .5-.1 2.4-1.4 4.3-3 1.9-1.7 3.8-3 4.4-3 .5 0 3-1.9 5.6-4.2 2.5-2.4 8.2-7.2 12.4-10.8 11-9.1 36.7-35.8 46.3-48.2 12.1-15.5 22.2-32 32.7-53.2 10.9-22.2 18-42.5 22.2-63.1 2.8-13.4 2.9-15.2 2.9-41.5s-.2-28.1-2.9-41c-1.5-7.4-4.1-16.9-5.7-21s-2.9-8.1-2.9-8.8 1.3-3.6 2.9-6.5c3.5-6.2 7.1-18.5 7.1-24.2-.1-9.5-4.1-31-7.9-42.5-12.9-38.4-35-68.8-64.2-88.3-17.6-11.7-31.7-16.6-49.2-17-7.8-.2-9.8.1-11.4 1.6-1.2 1-4.7 2.1-8.9 2.6-19.7 2.5-39.7 20-46.9 41.2-4.4 12.5-7.8 31.9-6.9 38.2.8 5.2 3.6 10 7.4 12.7 2 1.4 9.4 3.4 22.7 6.1 44.8 9.2 76.7 23.8 90.2 41.2 4 5.3 4.3 6.1 3.8 10.3-.7 6.7-1.8 7.2-6.9 3.2-5.7-4.7-19.7-13-28.9-17.2-7.7-3.6-22.9-8-31.4-9.1-2.7-.4-5.4-1-6-1.5-.5-.4-14-.7-30-.6-25.9.2-30.1.4-39.5 2.4-13.9 3-29.3 7.2-30.4 8.3-.6.5-1.9.9-3.1.9-2.3 0-11.9 3.4-28.4 10-33.7 13.4-74.5 41.1-101.4 68.8-26.8 27.6-46.6 55.4-59.5 83.7-9 19.7-19.2 51.2-22.8 69.9-2.2 11.7-2.3 13.1-.9 15.3 3.9 6 9.3 6.5 22.8 2.3 3.4-1.1 7.6-2 9.4-2 1.7 0 3.5-.4 3.8-1 .3-.5 1.9-1 3.6-1 1.6 0 3.7-.4 4.7-.9 2-1 17.7-4.1 21-4.1 1.2 0 3.3-.7 4.6-1.5 2.2-1.5 10.6-2.6 33.6-4.5 6.3-.5 15.3-1.2 19.9-1.6 8.5-.7 8.5-.7 6 2.6-7.3 9.8-15.9 22-23.8 33.5-13.3 19.3-20.3 27.4-37.4 43.8-14.5 13.7-15.8 14.7-19.4 14.7-3.2 0-4.6.7-7.8 4.1-6.7 6.9-17.2 12.9-22.5 12.9-3.6 0-9 4.5-9 7.4 0 14.5 45.5 32.1 103 40 14.5 1.9 53.5 2.1 65.4.2zm-875.4-18.8c3.6-.9 11-2.6 16.5-3.8 17.9-4 34.6-10.8 38.4-15.6 4.9-6.2 1.7-9.4-22.2-21.5-28-14.2-49.5-29.8-63.5-46-4-4.6-13-16.7-19.9-26.9-7-10.2-16.4-23.4-20.9-29.4-10.5-13.8-10.2-15.1 2.1-9.5 8.9 4 20 5.3 77 8.9 21.6 1.4 34 1.2 37.9-.4 4-1.7 6.6-6.7 6.6-12.9 0-8.6-8.2-46.4-12.9-59.7-5.5-15.5-5.2-15-19.9-29.8-36-36.2-65.1-76.6-83.1-115.2-3.5-7.4-6.8-14-7.3-14.7-3.3-4-29.6-9.9-50.8-11.4-27.6-1.9-65.4 2.4-71.4 8-1.7 1.6-4.4 2.5-8.8 3.1-7.2 1-10.6 2.1-20.1 6.3-7.3 3.4-9.5 3-7.4-1.3 1.4-2.7 13.5-12.4 19.4-15.5 2.1-1 4.9-2.7 6.3-3.6 3-2 20.5-9.4 24-10.2 1.4-.3 3.9-1 5.5-1.6 7.9-2.7 15.4-4.4 22.8-5.1 4.5-.5 10-1.3 12.2-1.9 2.2-.7 11.9-1.5 21.7-1.9 20.2-.8 20.2-.8 24.5-10.2 2.8-6.1 2.9-8.8 1.3-26-.6-6.3-1.3-20.9-1.6-32.5-.3-11.5-.8-21.3-1.2-21.6-2.3-2.1-9.8-3.1-25.9-3.6-22.2-.6-36.3 1.4-52.3 7.7-3 1.2-8 3.1-11 4.2-3 1.2-6.7 2.9-8.2 3.9-1.4 1.1-3.2 1.9-4 1.9s-5.6 2.6-10.8 5.8c-28.7 17.4-47.9 37-65.5 66.6-7.1 11.9-13.5 25.3-13.5 28.2 0 .8-.4 2.3-1 3.4-.5 1.1-1.4 2.9-2 4-.5 1-1.5 6.1-2.1 11.3-.9 7.9-.8 10.1.6 15 .9 3.1 2.1 5.9 2.6 6.2 1.5 1 1 3.3-1.5 7.4-8.9 14-12.7 42.4-10.1 74.8.8 9.8 1.9 19.8 2.4 22.3.6 2.5 2 9 3.1 14.5 2 9.2 7.8 28.7 15.2 51 7.7 23.2 26.7 56.7 45.3 80 31.3 39.3 75.5 69.9 124 85.9 9.6 3.2 15.8 4.7 35.5 8.8 22 4.5 60.9 5.9 74 2.6zm154.8-130.4c2.4-3.6 4.8-8 5.3-9.8.5-1.9 1.6-3.9 2.4-4.6 2.9-2.4 1.7-4.8-4.2-8.6-3.2-2.1-7.4-4.4-9.3-5.3s-6.7-3.7-10.6-6.3c-8.6-5.8-9.8-6-8.9-1.5 3.7 17.3 15.2 42.7 19.4 42.7.9 0 3.5-3 5.9-6.6zm364.7-7.3c3.9-.6 10.4-1.5 14.5-2.1 7.5-1.1 22.3-2.7 33.5-3.7 3.3-.3 6.5-.9 7-1.4.6-.4 5.3-1.3 10.5-1.9s10.4-1.5 11.5-2 3.4-1.1 5-1.4c6.7-1.1 19.1-3.9 21-4.7 1.1-.5 4.5-1.5 7.5-2.3 8.5-2.1 30.8-9.5 37.8-12.4 3.9-1.7 6.2-3.2 6.2-4.2 0-4 11.5-35 17.9-48.5 15.3-31.8 34.3-59 59.8-85.5 13.4-13.9 36.5-34.4 40.3-35.8.8-.3 3.6-2.4 6.1-4.6 8.1-7.2 30.7-22.2 44.4-29.6 4.4-2.3 8.4-4.7 9-5.1.5-.5 1.5-.9 2.3-.9s2.6-.8 4-1.8c4.2-2.8 20.5-10 28.9-12.8 4.1-1.3 9.6-3.4 12.2-4.6 2.5-1.2 7-2.3 9.9-2.6 2.9-.2 5.5-.8 5.8-1.3s1.5-.9 2.8-.9c1.2 0 2.7-.5 3.4-1.2 1.3-1.3 9.4-3.7 12.8-3.8 2.1 0 2.2-.4 2.6-18.2.4-15.8.8-19.7 3.2-28.8 3.1-12 8.5-24.1 15-33.8 5.1-7.6 20.7-24.2 22.8-24.2.8 0 2.5-1.1 3.8-2.5 2.4-2.5 13-8.5 15.1-8.5.7 0 2-.6 2.8-1.3 2.7-2.2 11.9-4.5 26.6-6.6 13.8-2 18.6-1.9 30.6.4 2.1.4 3.9.3 4.3-.3.3-.5-.5-3.1-1.9-5.8-1.3-2.7-4.2-8.6-6.4-13.1-7.7-15.8-28.2-46.8-41.4-62.6-17.2-20.8-47.2-50.5-63.6-63.1-16.5-12.7-43.2-30-61.6-39.9-84.7-45.7-145.9-70.6-222-90.2-9.9-2.6-24.5-6.5-32.5-8.6-11.9-3.2-54.2-11.9-78-15.9-11.5-2-35.3-5-47.2-6-6.8-.6-17.7-1.8-24.3-2.7-16.9-2.2-88.5-3.2-123-1.6-70.1 3.2-136.2 16.9-194.5 40.3-25.4 10.2-59.8 30.3-81 47.5-13.5 10.9-35.2 32.2-46.2 45.2-9 10.7-30.8 40.6-30.8 42.3 0 .6-2.6 4-5.7 7.6-14.7 16.3-35.4 55.6-45.5 85.9-3.9 11.8-10.8 38.8-10.8 42.3 0 1.5-.7 6.1-1.6 10.2-1.3 5.6-1.7 13.1-1.8 29.5-.1 19.7.3 25.4 3 45.3.3 2.3 1 4.5 1.5 4.8s.9 2.3.9 4.4.5 4.2 1 4.5c.6.3 1 1.8 1 3.2 0 2.7 1.6 8.4 3.1 11.5.5 1 .9 2.3.9 3 0 7.5 18.3 49.1 29.8 67.8 16.7 27.1 33 46.7 64.2 77.5 22.8 22.5 42.1 37.2 73.5 56.3 36.1 21.9 75.8 39.1 116 50.2 1.7.5 8.4 2.4 15 4.3s14.5 4 17.5 4.6c3 .7 6.4 1.6 7.5 2.1s3.6 1.1 5.5 1.4c3.4.5 19.3 3.5 29.5 5.7 7.9 1.6 23.9 4.3 35 5.8 3.9.5 11.3 1.6 16.5 2.5 5.2.8 15.6 1.8 23 2.2s14.6 1.1 16 1.5c3.4 1.2 109.6.2 118.5-1zm714-42.2c.8-2.5 0-15.2-2-29.9-1.6-11.5-12.9-57.8-16.8-68.7-3.9-10.7-10.5-27.1-13.9-34.5-2.3-5.1-3.6-6.8-5.1-6.8-1.7 0-1.9.5-1.3 3.3.4 1.7 1.1 13.8 1.7 26.7 1.2 28.8.2 40.9-6.2 77.3-1.1 6.3-1.1 7 .7 8.7 2.9 2.7 39.5 26 41 26 .7 0 1.6-1 1.9-2.1zm85-138.1c-1.9-25.5-14.1-64.2-30.7-97.3-20-39.8-38.2-63.5-66.2-86.4-15.7-12.8-17.6-14.2-26.9-19.3-23.6-13-44.6-18.8-74-20.3-15.6-.9-17.2-.2-12.8 5.4 1.5 2 4.1 5.6 5.6 8.1s4.9 6.8 7.5 9.5c7.2 7.6 24.2 29.5 31.5 40.5 11.4 17.2 22 39.5 30 62.9 3.2 9.4 3.2 9.4 8.8 11.7 6.8 2.9 35.1 19.9 47.2 28.4 19.6 13.7 39.2 29.7 66.5 53.9 7.4 6.6 13.6 12 13.8 12 .2.1 0-4.1-.3-9.1zm-1410.5-210.7c.5-1.1 1-4.1 1-6.7 0-4.3-.1-4.6-2.2-4-1.3.4-4.5 1.1-7.3 1.7-6.4 1.3-19.4 5.9-20.1 7.1-1 1.6.2 2 7.8 2.8 14.2 1.4 19.6 1.2 20.8-.9zm1173-89.4c2.5-.8 7.4-2.3 11-3.2 3.6-1 9.4-2.6 12.9-3.6 3.5-1.1 7.8-1.9 9.6-1.9 2.2 0 4.9-1.2 8.1-3.5 2.7-2 7-4.6 9.5-5.8 10.3-5.1 28.8-23.2 36.7-36 7.2-11.5 10.7-20.3 14.9-37.7 3.1-13.1 3.5-16.3 4-32.5.4-13.2.1-20.9-1.1-29-3.3-23.6-12.1-55.8-18-65.9-1.3-2.3-3.4-6.6-4.7-9.6-3.6-8.7-19.6-33.9-28.8-45.5-5.8-7.3-19.7-21.4-29.5-30-5.5-4.9-5.9-5.5-13-23-8.1-19.9-9-22-21.9-48.5-7.6-15.7-13.6-27.1-25.5-48.1-8.4-15-34.9-55.4-45.5-69.4-5.6-7.3-18.5-23.1-31.1-38-2.8-3.2-10.1-11.1-16.1-17.5-6.1-6.3-15.8-16.4-21.5-22.5-29.1-30.5-54.7-55-69.3-66.3-1.9-1.5-8.3-6.7-14.3-11.7-5.9-4.9-13.5-11.3-16.8-14-3.4-2.8-10.8-8.4-16.5-12.5s-12.7-9.2-15.5-11.2c-2.8-2.1-6.4-4.5-8.1-5.4-1.6-.9-5.9-3.8-9.5-6.4-7.4-5.5-17.6-11.8-37.5-23.5-7.7-4.5-16.2-9.5-19-11.2-9.9-5.9-43.4-22.2-60.7-29.7-21.6-9.2-50.2-19.9-62.3-23.2-16.3-4.4-22.5-6.2-28.4-8.1-3.8-1.2-17.8-4.3-27.1-6-1.4-.2-7-1.3-12.5-2.3-8.7-1.7-16-2.8-36.5-5.5-6.5-.9-13.1-1.3-44-2.5-38-1.4-57-.6-91.5 4-23.2 3.2-48.9 8-52.7 10.1-1 .5-2.9.9-4.2.9-1.4 0-2.7.4-3 .9-.3.4-2.3 1.1-4.3 1.5-2.1.3-5 1.2-6.5 2s-4.2 1.7-6 2.1-4.6 1.3-6.3 2c-1.6.8-6.4 2.3-10.5 3.5-4.1 1.3-10.3 3.5-13.7 5.1s-6.4 2.9-6.7 2.9c-1.3 0-21.5 10.1-22.1 11-.3.6-1.4 1-2.4 1s-2.6.9-3.6 2-2.4 2-3.2 2c-3.3 0-29.3 15-47.8 27.5-41.3 28.1-65.8 50.3-104.4 94.6-31.5 36.2-47.8 58.8-70.7 98.6-20.3 35.2-39.6 81.9-48.4 117.3-.5 1.9-1.3 5.4-1.9 7.6-.6 2.3-1.1 5.3-1.1 6.8s-.4 3.5-.9 4.4c-2.5 4.6-10.1 48.7-10.1 58.1 0 4.3 0 4.3 3 3.8 1.6-.4 6.2-2.6 10.2-5 10-6 49.3-25.5 60.3-30 11-4.4 21-8 29-10.2 3.3-.9 6.7-2.3 7.6-3.1 2.4-2.1 23.4-9.2 29.7-10 5.1-.6 10.5-2.8 13.9-5.6.7-.6 6-1.4 11.8-1.8 9-.7 11.1-1.1 14.3-3.4 4-2.7 14.8-5.9 24.2-7.1 3-.4 6-1.1 6.5-1.5 1.2-.9 11.3-3.4 20.5-5.1 3.6-.6 8.9-1.8 11.8-2.6s10.6-1.9 17-2.4c6.4-.6 13.5-1.4 15.7-1.9s7.6-1 12-1 11.2-.6 15-1.4c22.8-4.7 110.8-5.1 152.5-.7 5.2.6 14 1.5 19.5 2.1s12.3 1.5 15 2c2.8.5 8.6 1.4 13 2 8.1 1.1 10 1.5 26 4.9 5 1 11.7 2.4 15 3.1 3.3.6 7.8 1.6 10 2 2.2.5 5.4 1.2 7 1.5 1.7.3 4.9 1 7.3 1.6 2.3.5 6.1 1.3 8.5 1.8 19.4 4.2 74.9 22.4 91.2 30.1 2.2 1 11.9 5.3 21.5 9.5 49.8 22 78.8 38.6 127.6 72.8 25 17.5 63.6 47.9 78.3 61.4 5.8 5.4 12.6 11.7 15.1 13.8 28.6 25.5 158.2 154.7 173.3 173 2.7 3.3 7.7 8.9 11 12.5s7.1 8.1 8.6 10c1.4 1.9 5.8 7.6 9.7 12.6 3.9 4.9 8.4 11 9.9 13.5 1.5 2.4 3.3 4.8 3.9 5.2 1.7 1.2 18.5.1 23.6-1.6zm-1103.4-83.4c2.1-3.2 4.9-8.3 6.2-11.3 2.2-4.8 7.2-12.5 16.1-25.1 6.8-9.6 15.1-18.7 28.8-31.7 16.5-15.7 18.7-17.4 28.7-22.9 3.8-2.1 9.5-6.1 12.7-8.9s7.3-5.7 9.1-6.4c1.8-.6 4.4-1.8 5.8-2.6 3-1.7 18.1-9.2 27-13.3 6.7-3.2 17.8-7.5 23.9-9.3 1.9-.5 4.4-1.6 5.5-2.3 1.2-.6 4.8-2 8.1-2.9 3.3-1 6.9-2.1 8-2.6 2.4-1 17.8-6 29.5-9.4 4.7-1.4 10.5-2.8 13-3.2 4.4-.5 10.3-2 20.5-5 6.7-2 19.3-4.4 23-4.4 1.7 0 5.9-.8 9.5-1.9 7.9-2.4 17.4-4.1 22.3-4.1 1.9 0 3.8-.4 4.1-.9.3-.4 8.3-1.1 17.8-1.4 9.6-.3 20.4-1.3 24.3-2.1 3.9-.9 8.8-1.6 11-1.6 2.3 0 4.7-.6 5.3-1.2 1.6-1.6 104.2-3 119.2-1.7 5.2.5 18.3 1.5 29 2.4 10.7.8 22 1.9 25 2.5 3 .5 10.2 1.4 16 2 25 2.6 79.9 13.1 112.5 21.5 56.7 14.5 77.5 21 120.5 37.6 32.6 12.5 35.9 13.9 51 20.9 6.9 3.2 17.9 8.3 24.5 11.3s16.7 8.1 22.5 11.3c26.4 14.3 26.4 15.5-.5-11.1-43.9-43.5-82.2-78-109-98.1-45.6-34.3-81.5-56.7-126-78.5-45.8-22.4-88.7-38.4-126.5-47.3-54.3-12.6-76.1-16.1-133.5-21.1-36.2-3.1-112.3-2.7-133 .7-6.4 1-17.4 2.4-26.5 3.3-15 1.5-32 3.6-36.5 4.5-10.1 2.1-19.2 4-25.5 5.5-3.6.8-9 2-12 2.5-3 .6-7.1 1.4-9 1.9s-6.2 1.5-9.5 2.1c-3.3.7-6.8 1.6-7.7 2.1-1 .5-2.7.9-3.7.9-1.1 0-3 .4-4.3.9s-4.3 1.4-6.8 2.1-6.3 1.8-8.5 2.5-8 2.5-13 4c-10.8 3.3-23.4 7.4-25.5 8.2-.8.3-3.5 1.4-6 2.3-23.6 8.9-29.3 11.1-34.5 13.5-3.3 1.5-11.3 5.2-17.8 8.1s-15.3 7.3-19.5 9.7c-4.2 2.5-11.3 6.3-15.7 8.6-22 11.3-60.2 39-79.8 57.9-28.3 27.2-43.1 53.1-42.9 75.4.1 18.7 5.9 32.7 20.7 50.2 20.2 23.8 65.9 47.4 115.2 59.5 12.3 3.1 12.7 3 16.9-3.6z" fill="#F2FDEC" fill-rule="nonzero" />
  <path d="m705 1167.1c-12.5-7.8-31.8-29.8-39.3-44.7-6.5-12.9-12.8-31.5-15.3-44.9-2-11.4-3.1-52.1-1.6-61.8 1.3-8.1 4.6-15.5 7.6-16.8 1.1-.5 3.2-1.6 4.6-2.4 3.4-2 7.9-1.9 11.7.3 1.7.9 7.5 5.8 12.7 10.8 11.8 11.3 22.4 18.7 33.8 23.6 13.8 6 24.1 7.8 47.3 8.5 18.3.5 20.7.3 27.7-1.6 4.3-1.2 9.1-2.1 10.8-2.1 3.5 0 20.3-8 30.5-14.5 3.9-2.5 11.4-8.4 16.7-13.1 11.6-10.4 16.2-12.7 23.6-12.1 4.3.3 5.9 1 8.6 3.6 5.5 5.4 6.7 11.5 6.6 35.3-.1 34-3 50.2-13.2 73.8-4.4 10-14.9 28.2-16.6 28.8-.6.2-1.3-.6-1.7-1.7-1.3-4.2-13.6-14.3-22.9-18.7-19.4-9.3-40.4-10-63.8-2-22.4 7.6-45.6 27.1-58.5 49-1.6 2.7-3.3 5.1-3.8 5.3-.6.1-3-1-5.5-2.6z" fill="#F2FDEC" fill-rule="nonzero" />
  <path d="m1032.5 1080.3c-11.7-1-31.5-7.7-41.4-14-14.7-9.4-25.6-20.3-35.7-35.8-7.2-11.1-10.5-18.1-15.2-32-7.9-23.5-9.7-37.6-8.9-68.5.3-11.8 1-23.7 1.5-26.5.6-2.7 1.6-8.4 2.2-12.5 1.3-8.5 3.6-16 9.2-31 7.8-20.4 19.1-38.3 34.2-53.9 10.6-10.9 23.1-20.9 29.3-23.6 2.1-.9 5.7-2.5 8.1-3.6 2.3-1 5.1-1.9 6-1.9 1 0 2.2-.4 2.8-1 2.3-2.3 16.9-5 27.4-5 12.2 0 19.2 1.1 30.4 4.6 10.4 3.3 15.6 6 25.1 13.2 19.6 14.5 36.9 38.9 45.4 63.9 6.6 19.5 9.1 34.7 9.8 59.4 1 35.4-4.2 62.9-17.1 90.4-12.2 26-29.7 47.1-50.9 61.4-9.1 6.1-12.4 7.8-21.1 10.8-6.7 2.2-30.8 6.5-35.1 6.1-1.1-.1-3.8-.3-6-.5zm-38.6-124.2c5-5 5.9-9.5 3.2-15-2.7-5.2-5.6-7.1-10.7-7.1-6.8 0-12.4 6-12.4 13.1 0 4.1 3.5 9.4 7.5 11.4 5.1 2.5 8.1 1.9 12.4-2.4zm26.1-34.2c10.4-3.3 24.3-17.3 30.8-30.9 5.6-12 5.9-12.9 7.2-26 1-10.3 0-16.4-4-24.7-6-12.2-18.8-18.9-34.9-18.1-7.4.3-9.5.9-15.1 3.9-17.7 9.4-32.3 31.5-36 54.4-2.8 17.4 6.7 35.9 21.2 41.3 6.2 2.3 23.7 2.4 30.8.1z" fill="#F2FDEC" fill-rule="nonzero" />
  <path d="m509 1066.1c-22.7-5-34.8-11.7-49.4-27.2-19.8-21.1-32.3-48.7-36.6-81.2-1.3-10.2-1.3-45.1 0-53.6.6-3.6 1.6-9.5 2.1-13.1 1.3-7.9 6.6-25.7 10.9-36.5 6.1-15.4 18.4-36 28-47 7.9-9 22.9-23.2 28.5-27 6.6-4.4 22.2-12.2 26-13 1.7-.3 5.5-1.4 8.5-2.3 8-2.4 32.1-2.4 41 .1 10.1 2.8 24.3 10.4 32.3 17.2 35.3 30.1 50.6 85.6 42.3 153.5-1.4 11.1-7.7 34-12.7 45.8-8.5 20-18.3 35.9-30.4 49.5-13.3 14.8-26.2 24.1-41 29.7-4.4 1.7-9.1 3.7-10.5 4.4-1.6.9-7.6 1.6-16.5 2-11.5.5-15.5.2-22.5-1.3zm-30.8-119.8c3.5-3.8 4.8-6.6 4.8-10.3 0-9.2-9.2-15.5-16.9-11.6-3.8 2-7.1 7-7.1 10.9 0 10.7 12.7 17.9 19.2 11zm36-36.6c12.1-5.9 22.1-17.4 28.7-32.9 4.7-11 6.2-17.4 6.2-27.5.1-14.7-6.1-26.3-17.3-32.3-5.7-3.1-7.3-3.5-16-3.8-9.5-.4-10-.3-17.2 3.1-8.3 3.9-13.8 8.5-20.2 16.8-9.8 12.8-18.4 33.7-18.4 44.7 0 11.6 4.2 21.5 12 28.5 6.8 6.1 11.9 7.7 24.6 7.4 9.4-.2 10.6-.5 17.6-4z" fill="#F2FDEC" fill-rule="nonzero" />
</svg>